<?xml version="1.0" encoding="UTF-8" standalone="no" ?>
<!DOCTYPE svg PUBLIC "-//W3C//DTD SVG 1.1//EN" "http://www.w3.org/Graphics/SVG/1.1/DTD/svg11.dtd">
<svg xmlns="http://www.w3.org/2000/svg" xmlns:xlink="http://www.w3.org/1999/xlink" version="1.1" width="100" height="100" viewBox="0 0 100 100" xml:space="preserve">
<desc>Created with Fabric.js 5.3.0</desc>
<defs>
</defs>
<g transform="matrix(0.4865230736 0 0 0.4865230736 51.2023438004 82.3488757046)" id="HPreeo7c_4xgf1fGanFjW"  >
<g style="" vector-effect="non-scaling-stroke"   >
		<g transform="matrix(0.1333333333 0 0 -0.1333333333 48.0406773362 1.2849069648)" id="_lFdycsr1LUbg5IjXGXps"  >
<path style="stroke: none; stroke-width: 1; stroke-dasharray: none; stroke-linecap: butt; stroke-dashoffset: 0; stroke-linejoin: miter; stroke-miterlimit: 4; fill: rgb(0,0,0); fill-rule: nonzero; opacity: 1;" vector-effect="non-scaling-stroke"  transform=" translate(-1110.3050800211, -320.3631977643)" d="M 1080 568 C 1066 562 1043 541 1030 521 C 1006 487 1005 476 1002 325 C 1000 187 1002 160 1017 130 C 1058 50 1153 39 1194 110 C 1212 140 1215 166 1218 311 C 1223 498 1215 531 1159 563 C 1125 582 1117 582 1080 568 z M 1149 506 C 1158 495 1160 443 1158 326 C 1155 172 1154 159 1133 139 L 1112 117 L 1086 143 C 1060 169 1060 171 1060 318 C 1060 454 1062 470 1081 494 C 1104 523 1131 528 1149 506 z" stroke-linecap="round" />
</g>
		<g transform="matrix(0.1333333333 0 0 -0.1333333333 -81.5548809502 1.2579732648)" id="Dl0bz0Dg1oByrT_Zehidh"  >
<path style="stroke: none; stroke-width: 1; stroke-dasharray: none; stroke-linecap: butt; stroke-dashoffset: 0; stroke-linejoin: miter; stroke-miterlimit: 4; fill: rgb(0,0,0); fill-rule: nonzero; opacity: 1;" vector-effect="non-scaling-stroke"  transform=" translate(-138.3383928732, -320.5652005141)" d="M 82 552 C 45 523 31 434 40 287 C 49 146 60 110 99 87 C 139 64 152 65 183 98 C 220 136 247 257 224 280 C 200 305 176 280 169 223 C 165 196 157 163 150 151 C 139 129 137 129 122 144 C 108 158 104 188 102 321 C 98 491 103 514 144 508 C 161 506 166 496 170 460 C 175 412 197 397 225 420 C 256 446 233 537 191 560 C 161 576 108 572 82 552 z" stroke-linecap="round" />
</g>
		<g transform="matrix(0.1333333333 0 0 -0.1333333333 -48.5797958971 1.0601924741)" id="whMrRQfZrrVCLF0ucyvQq"  >
<path style="stroke: none; stroke-width: 1; stroke-dasharray: none; stroke-linecap: butt; stroke-dashoffset: 0; stroke-linejoin: miter; stroke-miterlimit: 4; fill: rgb(0,0,0); fill-rule: nonzero; opacity: 1;" vector-effect="non-scaling-stroke"  transform=" translate(-385.6515307717, -322.0485564445)" d="M 282 561 C 272 555 270 508 272 342 C 275 137 276 131 299 106 C 332 71 389 63 437 87 C 496 115 500 131 500 357 C 500 553 499 559 479 565 C 440 578 436 559 438 363 C 440 160 434 130 387 130 C 343 130 340 143 340 343 C 340 558 331 592 282 561 z" stroke-linecap="round" />
</g>
		<g transform="matrix(0.1333333333 0 0 -0.1333333333 -15.1550750517 1.3676381427)" id="QEwG5gQeABL7Szxy3mPD1"  >
<path style="stroke: none; stroke-width: 1; stroke-dasharray: none; stroke-linecap: butt; stroke-dashoffset: 0; stroke-linejoin: miter; stroke-miterlimit: 4; fill: rgb(0,0,0); fill-rule: nonzero; opacity: 1;" vector-effect="non-scaling-stroke"  transform=" translate(-636.3369371126, -319.74271393)" d="M 546 562 C 544 558 540 446 538 315 C 535 85 536 75 554 72 C 591 64 600 96 601 234 C 601 381 604 379 649 211 C 683 83 697 59 724 86 C 734 95 738 110 735 119 C 731 128 715 185 698 247 L 667 358 L 699 396 C 737 443 739 483 707 531 C 685 563 681 565 618 568 C 582 570 549 567 546 562 z M 660 500 C 671 489 680 474 680 466 C 680 443 650 419 626 422 C 609 424 604 433 602 473 C 599 515 601 520 619 520 C 631 520 649 511 660 500 z" stroke-linecap="round" />
</g>
		<g transform="matrix(0.1333333333 0 0 -0.1333333333 15.391046814 1.8314359811)" id="6q_60V_Av41mxNPpcE50v"  >
<path style="stroke: none; stroke-width: 1; stroke-dasharray: none; stroke-linecap: butt; stroke-dashoffset: 0; stroke-linejoin: miter; stroke-miterlimit: 4; fill: rgb(0,0,0); fill-rule: nonzero; opacity: 1;" vector-effect="non-scaling-stroke"  transform=" translate(-865.4328511051, -316.2642301419)" d="M 816 535 C 780 502 783 468 824 423 C 882 358 900 314 900 235 C 900 187 895 157 885 144 C 870 125 870 125 855 144 C 840 164 835 209 839 292 C 843 361 834 382 802 378 C 775 375 775 374 772 290 C 768 186 783 128 822 95 C 860 63 882 64 922 99 C 954 127 955 131 958 219 C 962 299 959 315 936 365 C 922 395 897 432 880 446 C 827 491 853 523 907 480 C 936 457 950 462 950 493 C 950 559 869 584 816 535 z" stroke-linecap="round" />
</g>
		<g transform="matrix(0.1333333333 0 0 -0.1333333333 79.425409565 1.6811450559)" id="wxTeaA6P6BxXMaRK2IgzL"  >
<path style="stroke: none; stroke-width: 1; stroke-dasharray: none; stroke-linecap: butt; stroke-dashoffset: 0; stroke-linejoin: miter; stroke-miterlimit: 4; fill: rgb(0,0,0); fill-rule: nonzero; opacity: 1;" vector-effect="non-scaling-stroke"  transform=" translate(-1345.6905717376, -317.3914120807)" d="M 1286 529 C 1272 512 1260 494 1260 489 C 1260 470 1288 425 1315 400 C 1330 386 1349 361 1356 343 C 1374 301 1374 170 1357 146 C 1345 129 1343 129 1329 146 C 1320 157 1313 197 1310 269 C 1305 374 1305 375 1280 375 C 1255 375 1255 374 1252 280 C 1248 165 1259 122 1301 91 C 1327 72 1338 69 1363 77 C 1468 107 1465 346 1359 445 C 1337 465 1322 485 1325 491 C 1335 506 1363 501 1386 479 C 1428 440 1447 485 1409 534 C 1378 573 1321 571 1286 529 z" stroke-linecap="round" />
</g>
</g>
</g>
</svg>