<?xml version="1.0" encoding="UTF-8" standalone="no" ?>
<!DOCTYPE svg PUBLIC "-//W3C//DTD SVG 1.1//EN" "http://www.w3.org/Graphics/SVG/1.1/DTD/svg11.dtd">
<svg xmlns="http://www.w3.org/2000/svg" xmlns:xlink="http://www.w3.org/1999/xlink" version="1.1" width="640" height="640" viewBox="0 0 640 640" xml:space="preserve">
<desc>Created with Fabric.js 5.3.0</desc>
<defs>
</defs>
<g transform="matrix(7.1779771497 0 0 7.1779771497 318.3218409926 321.2545838417)" id="cSFKu6RzLYitwN5k8kxXO"  >
<g style="" vector-effect="non-scaling-stroke"   >
		<g transform="matrix(1 0 0 1 0 1.7251880837)" id="oW7kra2fmDqgsjUyu4t5C"  >
<path style="stroke: rgb(38,50,56); stroke-width: 1; stroke-dasharray: none; stroke-linecap: butt; stroke-dashoffset: 0; stroke-linejoin: miter; stroke-miterlimit: 4; fill: rgb(255,255,255); fill-rule: nonzero; opacity: 1;" vector-effect="non-scaling-stroke"  transform=" translate(-41.93, -41.93)" d="M 0 41.93 C 0 18.7727 18.7727 0 41.93 0 C 65.0873 0 83.86 18.7727 83.86 41.93 C 83.86 65.0873 65.0873 83.86 41.93 83.86 C 18.7727 83.86 0 65.0873 0 41.93 z" stroke-linecap="round" />
</g>
		<g transform="matrix(1 0 0 1 0 1.7251880837)" id="rM__9JoZzF4ssjN5wxx7Q"  >
<path style="stroke: rgb(38,50,56); stroke-width: 1; stroke-dasharray: none; stroke-linecap: butt; stroke-dashoffset: 0; stroke-linejoin: miter; stroke-miterlimit: 4; fill: rgb(255,255,255); fill-rule: nonzero; opacity: 0.3;" vector-effect="non-scaling-stroke"  transform=" translate(-41.93, -41.93)" d="M 0 41.93 C 0 18.7727 18.7727 0 41.93 0 C 65.0873 0 83.86 18.7727 83.86 41.93 C 83.86 65.0873 65.0873 83.86 41.93 83.86 C 18.7727 83.86 0 65.0873 0 41.93 z" stroke-linecap="round" />
</g>
		<g transform="matrix(1 0 0 1 -2.1433191241 0)" id="y1n8p39A8wW0Yjx7_d89p"  >
<path style="stroke: rgb(38,50,56); stroke-width: 1; stroke-dasharray: none; stroke-linecap: butt; stroke-dashoffset: 0; stroke-linejoin: miter; stroke-miterlimit: 10; fill: rgb(38,50,56); fill-rule: nonzero; opacity: 1;" vector-effect="non-scaling-stroke"  transform=" translate(-174.088480178, -182.748380488)" d="M 147.38 205.74 C 146.66 208.61 143.38 208.21 144.38 211.74 C 158.2531607762344 227.98003527847766 182.12003818076425 231.18899100242186 199.78999999999996 219.19 C 202.79 215.64 204.59 211.91 204.67 208.91 C 204.94 199.75 195.26 192.91 194.73999999999998 188.5 C 194.21999999999997 184.09 198.39999999999998 174.12 198.39999999999998 174.12 C 198.39999999999998 174.12 205.71999999999997 173.07 208.33999999999997 166.54 C 210.95999999999998 160.01 201 145.32 192.1 140.87 C 183.2 136.42000000000002 168.29999999999998 140.35 160.98 151.07 C 153.66 161.79 162.54999999999998 171.20999999999998 157.84 176.18 C 153.13000000000002 181.15000000000003 140.84 181.41 139.53 191.35 C 138.22 201.29 148.16 202.6 147.38 205.74 Z" stroke-linecap="round" />
</g>
		<g transform="matrix(1 0 0 1 -5.5889762472 -0.523380488)" id="oKTU25kpZdh6IzgFCDSWx"  >
<path style="stroke: rgb(255,255,255); stroke-width: 0.75; stroke-dasharray: none; stroke-linecap: round; stroke-dashoffset: 0; stroke-linejoin: round; stroke-miterlimit: 4; fill: none; fill-rule: nonzero; opacity: 1;" vector-effect="non-scaling-stroke"  transform=" translate(-170.6428230549, -182.225)" d="M 192.13 150.84 C 192.13 150.84 194.78 157.33 184.46 161.16 C 174.14000000000001 164.98999999999998 166.18 162.93 163.52 169.71 C 160.86 176.49 162.93 181.22 163.23000000000002 184.71 C 163.53000000000003 188.20000000000002 155.23000000000002 187.65 150.23000000000002 192.08 C 145.23000000000002 196.51000000000002 155.23000000000002 201.81 157.9 204.76000000000002 C 160.57 207.71000000000004 159.96 212.13000000000002 155.24 213.61" stroke-linecap="round" />
</g>
		<g transform="matrix(1 0 0 1 -0.5790572041 -29.103380488)" id="7JqdvutlmBZJVU5nOf99N"  >
<path style="stroke: rgb(255,255,255); stroke-width: 0.75; stroke-dasharray: none; stroke-linecap: round; stroke-dashoffset: 0; stroke-linejoin: round; stroke-miterlimit: 4; fill: none; fill-rule: nonzero; opacity: 1;" vector-effect="non-scaling-stroke"  transform=" translate(-175.652742098, -153.645)" d="M 160.87 164.41 C 160.87 164.41 164.70000000000002 154.97 170.6 153.49 C 176.49999999999997 152.01000000000002 182.99 156.44 187.41 152.31 C 191.82999999999998 148.18 190.95 145.24 187.7 142.88" stroke-linecap="round" />
</g>
		<g transform="matrix(1 0 0 1 24.0826393872 -20.9840620697)" id="H5N42PIgwYXG1YeHrcWwT"  >
<path style="stroke: rgb(255,255,255); stroke-width: 0.75; stroke-dasharray: none; stroke-linecap: round; stroke-dashoffset: 0; stroke-linejoin: round; stroke-miterlimit: 4; fill: none; fill-rule: nonzero; opacity: 1;" vector-effect="non-scaling-stroke"  transform=" translate(-200.3144386893, -161.7643184183)" d="M 196.55 154.67 C 196.55 154.67 206.88000000000002 161.45999999999998 203.34 166.76999999999998 C 199.79999999999998 172.07999999999998 198.62 165.58999999999997 198.62 165.58999999999997" stroke-linecap="round" />
</g>
		<g transform="matrix(1 0 0 1 2.903200698 31.2147321827)" id="Bm-Ikf0hfz5NH75Nsc28t"  >
<path style="stroke: rgb(38,50,56); stroke-width: 1; stroke-dasharray: none; stroke-linecap: butt; stroke-dashoffset: 0; stroke-linejoin: miter; stroke-miterlimit: 10; fill: rgb(255,255,255); fill-rule: nonzero; opacity: 1;" vector-effect="non-scaling-stroke"  transform=" translate(-179.135, -213.9631126707)" d="M 153.49 219.69 C 169.60490451382103 230.10477525193107 190.73495729129726 228.24266102782906 204.78 215.17 C 201.6927077632642 212.33387748810603 198.4186955526424 209.7079860620359 194.98000000000002 207.31 C 188.44 202.85999999999999 183.20999999999998 201.30999999999997 179.54999999999998 201.54999999999998 C 179.54999999999998 201.54999999999998 176.67 202.85999999999999 171.17999999999998 208.08999999999997 C 167.6 211.5 159 216.57 153.49 219.69 Z" stroke-linecap="round" />
</g>
		<g transform="matrix(1 0 0 1 4.7532147724 28.6791317371)" id="vrjhzicDF4Q32IcuixqP6"  >
<path style="stroke: rgb(38,50,56); stroke-width: 1; stroke-dasharray: none; stroke-linecap: butt; stroke-dashoffset: 0; stroke-linejoin: miter; stroke-miterlimit: 10; fill: rgb(255,255,255); fill-rule: nonzero; opacity: 1;" vector-effect="non-scaling-stroke"  transform=" translate(-180.9850140744, -211.4275122252)" d="M 189.22 208.74 C 189.22307734846976 206.99990470822183 188.97381730632858 205.26855792902512 188.48 203.60000000000002 C 185.71073568854356 202.21573802552018 182.64515547899936 201.52915791140055 179.54999999999998 201.60000000000002 C 179.54999999999998 201.60000000000002 177.26 202.60000000000002 172.89 206.60000000000002 C 172.7976046845913 207.33975504991218 172.75084954178294 208.08449768178846 172.75 208.83 C 172.75 215.70000000000002 176.43 221.26000000000002 180.98 221.26000000000002 C 185.52999999999997 221.26000000000002 189.22 215.61 189.22 208.74 Z" stroke-linecap="round" />
</g>
		<g transform="matrix(1 0 0 1 4.9601901229 19.8549709467)" id="MNQJqk0SPV8DOIhJ3Stdn"  >
<path style="stroke: none; stroke-width: 1; stroke-dasharray: none; stroke-linecap: butt; stroke-dashoffset: 0; stroke-linejoin: miter; stroke-miterlimit: 4; fill: rgb(255,255,255); fill-rule: nonzero; opacity: 1;" vector-effect="non-scaling-stroke"  transform=" translate(-181.1919894249, -202.6033514347)" d="M 177.45 188.21 C 177.45 188.21 177.45 195.54000000000002 176.67 202.34 C 175.89 209.14 176.92999999999998 216.46 181.89999999999998 216.98000000000002 C 186.86999999999998 217.50000000000003 186.07999999999998 205.74 185.55999999999997 201.03000000000003 C 185.2514082360876 198.07470059890133 185.2514082360876 195.09529940109874 185.55999999999997 192.14000000000004 Z" stroke-linecap="round" />
</g>
		<g transform="matrix(1 0 0 1 4.703200698 13.331619512)" id="_BluILMe2pD8gA63uQafq" clip-path="url(#CLIPPATH_2)"  >
<clipPath id="CLIPPATH_2" >
	<path transform="matrix(1 0 0 1 0.2569894249 6.5233514347) translate(-181.1919894249, -202.6033514347)" id="freepik--clip-path-7--inject-1--inject-46" d="M 177.45 188.21 C 177.45 188.21 177.45 195.54000000000002 176.67 202.34 C 175.89 209.14 176.92999999999998 216.46 181.89999999999998 216.98000000000002 C 186.86999999999998 217.50000000000003 186.07999999999998 205.74 185.55999999999997 201.03000000000003 C 185.2514082360876 198.07470059890133 185.2514082360876 195.09529940109874 185.55999999999997 192.14000000000004 Z" stroke-linecap="round" />
</clipPath>
<path style="stroke: none; stroke-width: 1; stroke-dasharray: none; stroke-linecap: butt; stroke-dashoffset: 0; stroke-linejoin: miter; stroke-miterlimit: 4; fill: rgb(255,255,255); fill-rule: nonzero; opacity: 0.5;" vector-effect="non-scaling-stroke"  transform=" translate(-180.935, -196.08)" d="M 176.52 203.92 L 185.35000000000002 195.35999999999999 C 185.35000000000002 195.08999999999997 185.35000000000002 194.82999999999998 185.35000000000002 194.58999999999997 L 183.55 191.23999999999998 L 177.42000000000002 188.23999999999998 C 177.42000000000002 188.23999999999998 177.42000000000002 195.57 176.64000000000001 202.36999999999998 C 176.61 202.86 176.56 203.39 176.52 203.92 Z" stroke-linecap="round" />
</g>
		<g transform="matrix(1 0 0 1 4.9601901229 19.8549709467)" id="KhXYPxB4fsQJmJ_hxfCdK"  >
<path style="stroke: rgb(38,50,56); stroke-width: 1; stroke-dasharray: none; stroke-linecap: butt; stroke-dashoffset: 0; stroke-linejoin: miter; stroke-miterlimit: 10; fill: none; fill-rule: nonzero; opacity: 1;" vector-effect="non-scaling-stroke"  transform=" translate(-181.1919894249, -202.6033514347)" d="M 177.45 188.21 C 177.45 188.21 177.45 195.54000000000002 176.67 202.34 C 175.89 209.14 176.92999999999998 216.46 181.89999999999998 216.98000000000002 C 186.86999999999998 217.50000000000003 186.07999999999998 205.74 185.55999999999997 201.03000000000003 C 185.2514082360876 198.07470059890133 185.2514082360876 195.09529940109874 185.55999999999997 192.14000000000004 Z" stroke-linecap="round" />
</g>
		<g transform="matrix(1 0 0 1 5.9475293578 -6.568380488)" id="uzymbyjWckgzFSKvk_h8z"  >
<path style="stroke: none; stroke-width: 1; stroke-dasharray: none; stroke-linecap: butt; stroke-dashoffset: 0; stroke-linejoin: miter; stroke-miterlimit: 4; fill: rgb(255,255,255); fill-rule: nonzero; opacity: 1;" vector-effect="non-scaling-stroke"  transform=" translate(-182.1793286598, -176.18)" d="M 195.24 155.52 C 195.24 155.52 195.76000000000002 158.92000000000002 186.87 163.11 C 177.98 167.3 173.53 170.69000000000003 172.75 174.61 C 171.97 178.53 171.7 180.11 171.7 180.11 C 171.7 180.11 169.86999999999998 176.44000000000003 166.47 178.27 C 163.07000000000002 180.1 166.21 187.17000000000002 169.35 187.43 C 172.48999999999998 187.69 173.26999999999998 186.64000000000001 173.26999999999998 186.64000000000001 C 173.26999999999998 186.64000000000001 183.46999999999997 196.84 189.48 196.84 C 195.49 196.84 197.85 191.09 199.16 180.84 C 200.43 171 195.24 155.52 195.24 155.52 Z" stroke-linecap="round" />
</g>
		<g transform="matrix(1 0 0 1 1.0074677025 -0.653380488)" id="CrQnW19EHiyuoN5DkfzJV" clip-path="url(#CLIPPATH_3)"  >
<clipPath id="CLIPPATH_3" >
	<path transform="matrix(1 0 0 1 4.9400616552 -5.915) translate(-182.1793286598, -176.18)" id="freepik--clip-path-8--inject-1--inject-46" d="M 195.24 155.52 C 195.24 155.52 195.76000000000002 158.92000000000002 186.87 163.11 C 177.98 167.3 173.53 170.69000000000003 172.75 174.61 C 171.97 178.53 171.7 180.11 171.7 180.11 C 171.7 180.11 169.86999999999998 176.44000000000003 166.47 178.27 C 163.07000000000002 180.1 166.21 187.17000000000002 169.35 187.43 C 172.48999999999998 187.69 173.26999999999998 186.64000000000001 173.26999999999998 186.64000000000001 C 173.26999999999998 186.64000000000001 183.46999999999997 196.84 189.48 196.84 C 195.49 196.84 197.85 191.09 199.16 180.84 C 200.43 171 195.24 155.52 195.24 155.52 Z" stroke-linecap="round" />
</clipPath>
<path style="stroke: none; stroke-width: 1; stroke-dasharray: none; stroke-linecap: butt; stroke-dashoffset: 0; stroke-linejoin: miter; stroke-miterlimit: 4; fill: rgb(255,255,255); fill-rule: nonzero; opacity: 0.5;" vector-effect="non-scaling-stroke"  transform=" translate(-177.2392670046, -182.095)" d="M 175.61 176.5 C 175.9271540573756 173.20595185710522 177.0991659456296 170.0518610401863 179.01000000000002 167.35 C 175.28000000000003 169.79 173.25000000000003 172.09 172.75000000000003 174.60999999999999 C 171.96000000000004 178.54 171.70000000000002 180.10999999999999 171.70000000000002 180.10999999999999 C 171.70000000000002 180.10999999999999 169.87 176.44 166.47000000000003 178.26999999999998 C 163.07000000000005 180.09999999999997 166.21000000000004 187.17 169.35000000000002 187.42999999999998 C 172.49 187.68999999999997 173.27 186.64 173.27 186.64 C 173.27 186.64 183.47 196.83999999999997 189.48000000000002 196.83999999999997 C 187.69577292308244 195.95325525236984 186.01830412713835 194.86625547259808 184.48000000000002 193.59999999999997 C 180.92 191 175.32 183 175.61 176.5 Z" stroke-linecap="round" />
</g>
		<g transform="matrix(1 0 0 1 5.9475293578 -6.568380488)" id="k_zb7szdNcCZZGPrc9mNC"  >
<path style="stroke: rgb(38,50,56); stroke-width: 1; stroke-dasharray: none; stroke-linecap: butt; stroke-dashoffset: 0; stroke-linejoin: miter; stroke-miterlimit: 10; fill: none; fill-rule: nonzero; opacity: 1;" vector-effect="non-scaling-stroke"  transform=" translate(-182.1793286598, -176.18)" d="M 195.24 155.52 C 195.24 155.52 195.76000000000002 158.92000000000002 186.87 163.11 C 177.98 167.3 173.53 170.69000000000003 172.75 174.61 C 171.97 178.53 171.7 180.11 171.7 180.11 C 171.7 180.11 169.86999999999998 176.44000000000003 166.47 178.27 C 163.07000000000002 180.1 166.21 187.17000000000002 169.35 187.43 C 172.48999999999998 187.69 173.26999999999998 186.64000000000001 173.26999999999998 186.64000000000001 C 173.26999999999998 186.64000000000001 183.46999999999997 196.84 189.48 196.84 C 195.49 196.84 197.85 191.09 199.16 180.84 C 200.43 171 195.24 155.52 195.24 155.52 Z" stroke-linecap="round" />
</g>
		<g transform="matrix(1 0 0 1 17.7121669356 -6.2997651542)" id="KZu-PoX1SY3ZOrhv5aOf8"  >
<path style="stroke: rgb(38,50,56); stroke-width: 1; stroke-dasharray: none; stroke-linecap: round; stroke-dashoffset: 0; stroke-linejoin: round; stroke-miterlimit: 4; fill: none; fill-rule: nonzero; opacity: 1;" vector-effect="non-scaling-stroke"  transform=" translate(-193.9439662377, -176.4486153339)" d="M 193.43 171.39 C 192.82960447793872 173.0295333332616 192.95318114389977 174.84683724445335 193.77 176.39 C 195.14000000000001 178.95999999999998 195.83 179.80999999999997 195.32000000000002 180.5 C 195.02457946553227 180.97905294043647 194.55079195145723 181.32097330328907 194.0030577128082 181.4504036542027 C 193.45532347415917 181.57983400511634 192.87860212800987 181.486150324988 192.40000000000003 181.19" stroke-linecap="round" />
</g>
		<g transform="matrix(1 0 0 1 12.823200698 3.9788639505)" id="zg91DVsaNIliw_n-QSkf2"  >
<path style="stroke: rgb(38,50,56); stroke-width: 1; stroke-dasharray: none; stroke-linecap: round; stroke-dashoffset: 0; stroke-linejoin: round; stroke-miterlimit: 4; fill: none; fill-rule: nonzero; opacity: 1;" vector-effect="non-scaling-stroke"  transform=" translate(-189.055, -186.7272444385)" d="M 192.4 187.34 C 192.4 187.34 187.4 189.23 185.71 185.62" stroke-linecap="round" />
</g>
		<g transform="matrix(1 0 0 1 10.513200698 -7.498380488)" id="RRp93KRVrD4rSTNLqT_Nm"  >
<path style="stroke: none; stroke-width: 1; stroke-dasharray: none; stroke-linecap: butt; stroke-dashoffset: 0; stroke-linejoin: miter; stroke-miterlimit: 4; fill: rgb(38,50,56); fill-rule: nonzero; opacity: 1;" vector-effect="non-scaling-stroke"  transform=" translate(-186.745, -175.25)" d="M 187.43 175.25 C 187.43 176.34 187.12 177.25 186.74 177.25 C 186.36 177.25 186.06 176.37 186.06 175.25 C 186.06 174.13 186.36 173.25 186.74 173.25 C 187.12 173.25 187.43 174.16 187.43 175.25 Z" stroke-linecap="round" />
</g>
		<g transform="matrix(1 0 0 1 19.598200698 -9.728380488)" id="0jDqCGw5JOK-TFXQXfB6H"  >
<path style="stroke: none; stroke-width: 1; stroke-dasharray: none; stroke-linecap: butt; stroke-dashoffset: 0; stroke-linejoin: miter; stroke-miterlimit: 4; fill: rgb(38,50,56); fill-rule: nonzero; opacity: 1;" vector-effect="non-scaling-stroke"  transform=" translate(-0.69, -1.97)" d="M 0 1.97 C 0 0.8819999999999999 0.30892 0 0.69 0 C 1.0710799999999998 0 1.38 0.882 1.38 1.97 C 1.38 3.058 1.0710799999999998 3.94 0.69 3.94 C 0.30892 3.94 0 3.058 0 1.97 z" stroke-linecap="round" />
</g>
		<g transform="matrix(1 0 0 1 8.798200698 -14.3860982285)" id="mdG6wKb6t4etkgyq1j0R8"  >
<path style="stroke: rgb(38,50,56); stroke-width: 1; stroke-dasharray: none; stroke-linecap: round; stroke-dashoffset: 0; stroke-linejoin: round; stroke-miterlimit: 4; fill: none; fill-rule: nonzero; opacity: 1;" vector-effect="non-scaling-stroke"  transform=" translate(-185.03, -168.3622822596)" d="M 182.46 169.51 C 182.46 169.51 183.46 166.76 187.6 167.28" stroke-linecap="round" />
</g>
		<g transform="matrix(1 0 0 1 19.253200698 -16.7177797634)" id="-vl25uLoNkJcpCGPolpil"  >
<path style="stroke: rgb(38,50,56); stroke-width: 1; stroke-dasharray: none; stroke-linecap: round; stroke-dashoffset: 0; stroke-linejoin: round; stroke-miterlimit: 4; fill: none; fill-rule: nonzero; opacity: 1;" vector-effect="non-scaling-stroke"  transform=" translate(-195.485, -166.0306007246)" d="M 193.6 166.76 C 193.6 166.76 194.79999999999998 163.85 197.37 166.25" stroke-linecap="round" />
</g>
</g>
</g>
</svg>