<?xml version="1.0" encoding="UTF-8" standalone="no" ?>
<!DOCTYPE svg PUBLIC "-//W3C//DTD SVG 1.1//EN" "http://www.w3.org/Graphics/SVG/1.1/DTD/svg11.dtd">
<svg xmlns="http://www.w3.org/2000/svg" xmlns:xlink="http://www.w3.org/1999/xlink" version="1.1" width="28" height="28" viewBox="0 0 28 28" xml:space="preserve">
<desc>Created with Fabric.js 5.3.0</desc>
<defs>
</defs>
<g transform="matrix(0.5757250981 0 0 0.5757250981 14 14)" id="1yt0jS716Jf8Aqzuap1V4"  >
<g style="" vector-effect="non-scaling-stroke"   >
		<g transform="matrix(0.1333333333 0 0 -0.1333333333 0.1010463728 -8.6670288215)" id="u9TvEuP5w6xjjbyCUxYxk"  >
<path style="stroke: none; stroke-width: 1; stroke-dasharray: none; stroke-linecap: butt; stroke-dashoffset: 0; stroke-linejoin: miter; stroke-miterlimit: 4; fill: rgb(0,0,0); fill-rule: nonzero; opacity: 1;" vector-effect="non-scaling-stroke"  transform=" translate(-240.7578477957, -305.0027161612)" d="M 76 401 C 64 388 60 369 62 339 C 66 282 84 283 90 340 L 95 385 L 240 385 L 385 385 L 388 288 C 390 210 394 190 405 190 C 417 190 420 209 420 288 C 420 423 424 420 238 420 C 108 420 91 418 76 401 z" stroke-linecap="round" />
</g>
		<g transform="matrix(0.1333333333 0 0 -0.1333333333 0.0312522825 -7.9339013196)" id="rkME0SRx8sua6RREtbTUh"  >
<path style="stroke: none; stroke-width: 1; stroke-dasharray: none; stroke-linecap: butt; stroke-dashoffset: 0; stroke-linejoin: miter; stroke-miterlimit: 4; fill: rgb(0,0,0); fill-rule: nonzero; opacity: 1;" vector-effect="non-scaling-stroke"  transform=" translate(-240.2343921185, -299.5042598974)" d="M 197 342 C 161 302 188 240 242 240 C 293 240 320 309 282 343 C 258 365 217 364 197 342 z M 260 314 C 271 302 270 296 257 282 C 241 267 239 267 223 282 C 210 296 209 302 220 314 C 227 323 236 330 240 330 C 244 330 253 323 260 314 z" stroke-linecap="round" />
</g>
		<g transform="matrix(0.1333333333 0 0 -0.1333333333 0 11.3333333333)" id="k0dONgABKP2y0QWpsRxFn"  >
<path style="stroke: none; stroke-width: 1; stroke-dasharray: none; stroke-linecap: butt; stroke-dashoffset: 0; stroke-linejoin: miter; stroke-miterlimit: 4; fill: rgb(0,0,0); fill-rule: nonzero; opacity: 1;" vector-effect="non-scaling-stroke"  transform=" translate(-240, -155)" d="M 60 172 C 60 60 60 60 242 60 C 404 60 420 66 420 128 C 420 172 392 171 388 128 L 385 95 L 240 95 L 95 95 L 92 173 C 90 232 86 250 75 250 C 63 250 60 234 60 172 z" stroke-linecap="round" />
</g>
		<g transform="matrix(0.1333333333 0 0 -0.1333333333 0 9.75)" id="W5Fc632Dipso2imhok92y"  >
<path style="stroke: none; stroke-width: 1; stroke-dasharray: none; stroke-linecap: butt; stroke-dashoffset: 0; stroke-linejoin: miter; stroke-miterlimit: 4; fill: rgb(0,0,0); fill-rule: nonzero; opacity: 1;" vector-effect="non-scaling-stroke"  transform=" translate(-240, -166.875)" d="M 152 208 C 134 190 138 155 161 134 C 191 107 289 107 319 134 C 342 155 346 190 328 208 C 312 224 168 224 152 208 z M 310 181 C 310 165 267 140 240 140 C 213 140 170 165 170 181 C 170 186 202 190 240 190 C 279 190 310 186 310 181 z" stroke-linecap="round" />
</g>
</g>
</g>
</svg>