<?xml version="1.0" encoding="UTF-8" standalone="no" ?>
<!DOCTYPE svg PUBLIC "-//W3C//DTD SVG 1.1//EN" "http://www.w3.org/Graphics/SVG/1.1/DTD/svg11.dtd">
<svg xmlns="http://www.w3.org/2000/svg" xmlns:xlink="http://www.w3.org/1999/xlink" version="1.1" width="160" height="160" viewBox="0 0 160 160" xml:space="preserve">
<desc>Created with Fabric.js 5.3.0</desc>
<defs>
</defs>
<g transform="matrix(0.3261460119 0 0 0.3261460119 82.8627791569 53.697681934)" id="-bqiwkZR4UrFaFduz4OL_"  >
<g style="" vector-effect="non-scaling-stroke"   >
		<g transform="matrix(1 0 0 1 113.6169530017 66.0428784588)" id="3N-2PwTeSuO8xYSSGGcrr"  >
<path style="stroke: none; stroke-width: 1; stroke-dasharray: none; stroke-linecap: butt; stroke-dashoffset: 0; stroke-linejoin: miter; stroke-miterlimit: 4; fill: rgb(37,44,232); fill-rule: nonzero; opacity: 1;" vector-effect="non-scaling-stroke"  transform=" translate(-363.6169530017, -316.0428784588)" d="M 395.78 203.41 C 388.54999999999995 204.13 275.48999999999995 287.57 275.48999999999995 287.57 L 394.22 428.68 C 419.38000000000005 407.81 438.51000000000005 378.68 446.96000000000004 341.88 C 448.7154068546952 334.2726639693334 449.9780308100711 326.5599689614945 450.74 318.79 C 452.26364314629774 302.90765680544695 452.0523968018739 286.9065844944829 450.11 271.07 C 449.58000000000004 266.57000000000005 448.99 262.27000000000004 448.33000000000004 258.12000000000006 C 426.14 232.38 399.84 203 395.78 203.41 Z" stroke-linecap="round" />
</g>
		<g transform="matrix(1 0 0 1 113.6169530017 66.0428784588)" id="gF_54v0GJaOK1dRtjN8UR"  >
<path style="stroke: none; stroke-width: 1; stroke-dasharray: none; stroke-linecap: butt; stroke-dashoffset: 0; stroke-linejoin: miter; stroke-miterlimit: 4; fill: rgb(255,255,255); fill-rule: nonzero; opacity: 0.7;" vector-effect="non-scaling-stroke"  transform=" translate(-363.6169530017, -316.0428784588)" d="M 395.78 203.41 C 388.54999999999995 204.13 275.48999999999995 287.57 275.48999999999995 287.57 L 394.22 428.68 C 419.38000000000005 407.81 438.51000000000005 378.68 446.96000000000004 341.88 C 448.7154068546952 334.2726639693334 449.9780308100711 326.5599689614945 450.74 318.79 C 452.26364314629774 302.90765680544695 452.0523968018739 286.9065844944829 450.11 271.07 C 449.58000000000004 266.57000000000005 448.99 262.27000000000004 448.33000000000004 258.12000000000006 C 426.14 232.38 399.84 203 395.78 203.41 Z" stroke-linecap="round" />
</g>
		<g transform="matrix(1 0 0 1 -30.565 70.42178479)" id="YU5WQ49Xn29KbtPWbWzWj"  >
<path style="stroke: none; stroke-width: 1; stroke-dasharray: none; stroke-linecap: butt; stroke-dashoffset: 0; stroke-linejoin: miter; stroke-miterlimit: 4; fill: rgb(37,44,232); fill-rule: nonzero; opacity: 1;" vector-effect="non-scaling-stroke"  transform=" translate(-219.435, -320.42178479)" d="M 173 399.3 C 188.14 416.90000000000003 209 439.59000000000003 237.69 453.48 L 353 453.48 C 367.73688265045706 447.37869483126195 381.4893013607551 439.129265524031 393.80999999999995 429 C 359.68 387.34000000000003 197.81 190.71 179.06 187.48 C 164.06 184.89999999999998 87.59 225.81 45.06 249.39999999999998 C 65.43 342.09 147.36 369.49 173 399.3 Z" stroke-linecap="round" />
</g>
		<g transform="matrix(1 0 0 1 -30.565 70.42178479)" id="1fyrJIwSCZjZpO5Tt-I6N"  >
<path style="stroke: none; stroke-width: 1; stroke-dasharray: none; stroke-linecap: butt; stroke-dashoffset: 0; stroke-linejoin: miter; stroke-miterlimit: 4; fill: rgb(255,255,255); fill-rule: nonzero; opacity: 0.7;" vector-effect="non-scaling-stroke"  transform=" translate(-219.435, -320.42178479)" d="M 173 399.3 C 188.14 416.90000000000003 209 439.59000000000003 237.69 453.48 L 353 453.48 C 367.73688265045706 447.37869483126195 381.4893013607551 439.129265524031 393.80999999999995 429 C 359.68 387.34000000000003 197.81 190.71 179.06 187.48 C 164.06 184.89999999999998 87.59 225.81 45.06 249.39999999999998 C 65.43 342.09 147.36 369.49 173 399.3 Z" stroke-linecap="round" />
</g>
		<g transform="matrix(1 0 0 1 -219.1982609261 7.4737444588)" id="8Sh1B7-wF_kAKPtg8yURJ"  >
<path style="stroke: none; stroke-width: 1; stroke-dasharray: none; stroke-linecap: butt; stroke-dashoffset: 0; stroke-linejoin: miter; stroke-miterlimit: 4; fill: rgb(38,50,56); fill-rule: nonzero; opacity: 1;" vector-effect="non-scaling-stroke"  transform=" translate(-30.8017390739, -257.4737444588)" d="M 16.52 266 C 16.33941610123764 266.00044291754585 16.1720621135012 265.9053554245138 16.08 265.75 C 15.95083612627845 265.5090460299999 16.034643800971896 265.20910277320235 16.27 265.07 C 16.38 265 28 258.32 44.84 249 C 45.083526504290994 248.87252498371865 45.384266737691114 248.9609779935422 45.52 249.2 C 45.6548655133448 249.44029737093868 45.569891693058075 249.74441420143856 45.330000000000005 249.88 C 28.520000000000007 259.2 16.880000000000006 265.88 16.770000000000007 265.98 C 16.689185003496736 266.0051445939395 16.60378469351745 266.01197661873783 16.52 266 Z" stroke-linecap="round" />
</g>
		<g transform="matrix(1 0 0 1 -88.946582489 -15.4357079441)" id="ZFaEZ5w8jJHIxEWJ9qMdg"  >
<path style="stroke: none; stroke-width: 1; stroke-dasharray: none; stroke-linecap: butt; stroke-dashoffset: 0; stroke-linejoin: miter; stroke-miterlimit: 4; fill: rgb(38,50,56); fill-rule: nonzero; opacity: 1;" vector-effect="non-scaling-stroke"  transform=" translate(-161.053417511, -234.5642920559)" d="M 270.21 282.24 C 270.0640723936038 282.2440671301631 269.9242248431718 282.1815037523383 269.83 282.07 C 203.85 205.9 184 188.87 179 188 C 164.81 185.55 93.41 223.36 52.11 246.12 C 51.99337192572828 246.18397897700928 51.856056738644085 246.19884578040998 51.72843798449444 246.1613108527189 C 51.6008192303448 246.12377592502784 51.4934184252107 246.03693382979822 51.43 245.92000000000002 C 51.36645420533257 245.80487891012208 51.35184509532881 245.66904796876892 51.38945733505448 245.54304696568792 C 51.42706957478015 245.41704596260695 51.513746517637976 245.311449663899 51.63 245.25000000000003 C 102.21000000000001 217.37000000000003 165.4 184.64000000000004 179.17000000000002 187.01000000000002 C 186.73000000000002 188.31000000000003 217.49 220.07000000000002 270.61 281.41 C 270.7416781011043 281.5544825474217 270.7748799981373 281.76340886277256 270.694479253321 281.9415942972302 C 270.61407850850475 282.1197797316879 270.43545982073005 282.233128466089 270.24 282.23 Z" stroke-linecap="round" />
</g>
		<g transform="matrix(1 0 0 1 86.7856959721 111.1224834961)" id="ylCT8bOl4PJV9DNhUPAQn"  >
<path style="stroke: none; stroke-width: 1; stroke-dasharray: none; stroke-linecap: butt; stroke-dashoffset: 0; stroke-linejoin: miter; stroke-miterlimit: 4; fill: rgb(38,50,56); fill-rule: nonzero; opacity: 1;" vector-effect="non-scaling-stroke"  transform=" translate(-336.7856959721, -361.1224834961)" d="M 400.11 437.24 C 399.9598403690805 437.2403399061009 399.8171619783442 437.1744883411457 399.72 437.06 C 399.06 436.24 332.72 354.81 273.08000000000004 285.83000000000004 C 272.90050745630504 285.62013179506437 272.9251317950644 285.30449254369506 273.13500000000005 285.12500000000006 C 273.3448682049357 284.94550745630505 273.660507456305 284.9701317950644 273.84000000000003 285.18000000000006 C 333.44000000000005 354.18000000000006 399.84000000000003 435.61000000000007 400.5 436.43000000000006 C 400.6725194875154 436.6430651644176 400.6412943817067 436.95531622250473 400.43 437.13000000000005 C 400.3372281962088 437.1987869603154 400.2254576060135 437.23720810069494 400.11 437.24 Z" stroke-linecap="round" />
</g>
		<g transform="matrix(1 0 0 1 227.6924743903 42.776862524)" id="z9iEOwre-wrzLZDiKfMFe"  >
<path style="stroke: none; stroke-width: 1; stroke-dasharray: none; stroke-linecap: butt; stroke-dashoffset: 0; stroke-linejoin: miter; stroke-miterlimit: 4; fill: rgb(38,50,56); fill-rule: nonzero; opacity: 1;" vector-effect="non-scaling-stroke"  transform=" translate(-477.6924743903, -292.776862524)" d="M 480.3 296.37 C 480.14953774302813 296.3717408671755 480.0062922190141 296.30562754839974 479.91 296.19 L 474.7 290 C 474.5274805124846 289.7869348355825 474.5587056182933 289.47468377749533 474.77 289.3 C 474.870019261086 289.21335927875884 475.0008286649954 289.17085503662116 475.1326723493839 289.18215592385445 C 475.26451603377234 289.19345681108774 475.3861840599514 289.25760197580445 475.46999999999997 289.36 L 480.67999999999995 295.6 C 480.85605378916426 295.81371371069014 480.82942156712136 296.12886167153124 480.61999999999995 296.31 C 480.52162945663684 296.361250189684 480.4102548770579 296.382132923355 480.3 296.37 Z" stroke-linecap="round" />
</g>
		<g transform="matrix(1 0 0 1 123.6694070256 -4.7223786904)" id="m_vjr_fzhgaBq_F39oHZ6"  >
<path style="stroke: none; stroke-width: 1; stroke-dasharray: none; stroke-linecap: butt; stroke-dashoffset: 0; stroke-linejoin: miter; stroke-miterlimit: 4; fill: rgb(38,50,56); fill-rule: nonzero; opacity: 1;" vector-effect="non-scaling-stroke"  transform=" translate(-373.6694070256, -245.2776213096)" d="M 276.33 287.65 C 276.11478479596326 287.65 275.92371537416017 287.5122849525646 275.85565835097475 287.3081138830084 C 275.78760132778933 287.10394281345225 275.8578278367706 286.87912912242206 276.03 286.75 C 280.61999999999995 283.36 388.45 203.64 395.72999999999996 202.91 C 401.36999999999995 202.32999999999998 445.56999999999994 253.75 471.39 284.44 C 471.569492543695 284.65262962868485 471.54262962868484 284.970507456305 471.33 285.15 C 471.11737037131513 285.329492543695 470.799492543695 285.3026296286848 470.62 285.09 C 427.82 234.18999999999997 399.94 203.89999999999998 395.9 203.89999999999998 L 395.83 203.89999999999998 C 390.21999999999997 204.45999999999998 315.40999999999997 258.9 276.63 287.54999999999995 C 276.5445521010735 287.6169838279541 276.43854861591365 287.65231832300736 276.33 287.65 Z" stroke-linecap="round" />
</g>
		<g transform="matrix(1 0 0 1 135.6155008041 -129.3586287838)" id="g5TfrpIbAJq0UWk1mfNHt"  >
<path style="stroke: none; stroke-width: 1; stroke-dasharray: none; stroke-linecap: butt; stroke-dashoffset: 0; stroke-linejoin: miter; stroke-miterlimit: 4; fill: rgb(255,255,255); fill-rule: nonzero; opacity: 1;" vector-effect="non-scaling-stroke"  transform=" translate(-385.6155008041, -120.6413712162)" d="M 441.78 128.9 C 441.78 128.9 429.91999999999996 106.56 406.17999999999995 102.37 C 382.43999999999994 98.18 373.37 124 367.09 130.3 C 360.80999999999995 136.60000000000002 358.71 124.71000000000001 347.53999999999996 125.41000000000001 C 336.36999999999995 126.11000000000001 333.53999999999996 133.09 331.48999999999995 136.58 C 329.43999999999994 140.07000000000002 321.62999999999994 128.58 317.12999999999994 130.13000000000002 C 312.62999999999994 131.68000000000004 310.60999999999996 136.65000000000003 310.60999999999996 136.65000000000003 L 294.48999999999995 139.37000000000003 L 476.68999999999994 139.37000000000003 C 476.68999999999994 139.37000000000003 478.0899999999999 127.50000000000003 466.2199999999999 124.71000000000004 C 454.3499999999999 121.92000000000004 446.67 130.3 441.78 128.9 Z" stroke-linecap="round" />
</g>
		<g transform="matrix(1 0 0 1 135.6109296799 -129.3946679372)" id="p5wh5TPEUWqmo197Kh7g6"  >
<path style="stroke: none; stroke-width: 1; stroke-dasharray: none; stroke-linecap: butt; stroke-dashoffset: 0; stroke-linejoin: miter; stroke-miterlimit: 4; fill: rgb(38,50,56); fill-rule: nonzero; opacity: 1;" vector-effect="non-scaling-stroke"  transform=" translate(-385.6109296799, -120.6053320628)" d="M 476.69 139.87 L 294.49 139.87 C 294.2287531456746 139.8708372284497 294.01089851412314 139.67041096742236 293.99 139.41 C 293.9661230195303 139.14955721478356 294.1509921879785 138.91626993078944 294.41 138.88 L 310.26000000000005 136.2 C 310.76000000000005 135.11999999999998 312.86000000000007 131.07999999999998 316.97 129.66 C 319.48 128.78 322.70000000000005 131.39 325.53000000000003 133.66 C 327.53000000000003 135.24 329.53000000000003 136.87 330.53000000000003 136.66 C 330.7612908868633 136.61423761940134 330.95759923686785 136.46237644298276 331.06 136.25 C 331.26 135.92 331.46 135.55 331.68 135.16 C 333.73 131.54 337.15000000000003 125.49 347.51 124.84 C 353.03999999999996 124.5 356.4 127.11 359.09999999999997 129.20000000000002 C 362.01 131.47000000000003 363.77 132.84 366.73999999999995 129.87 C 368.50424075996386 127.83434600238331 370.0838054803817 125.6457118346857 371.46 123.32999999999998 C 377.85999999999996 113.44 387.53 98.5 406.27 101.81 C 428.78 105.81 440.86 126.17 442.12 128.4 C 443.87 128.79 446.12 127.86 448.88 126.69000000000001 C 453.40999999999997 124.80000000000001 459.05 122.44000000000001 466.33 124.15 C 478.49 127.02000000000001 477.2 139.24 477.19 139.36 C 477.1900534086767 139.6378057479027 476.9677523443599 139.8645528335058 476.69 139.87 Z M 300.45 138.87 L 476.23 138.87 C 476.35 136.72 476.23 127.58000000000001 466.1 125.2 C 459.1 123.56 453.66 125.85000000000001 449.26000000000005 127.69 C 446.19000000000005 128.97 443.77000000000004 129.98 441.65000000000003 129.38 C 441.51906526231 129.33831700274214 441.40847586230365 129.249132002737 441.34000000000003 129.13 C 441.22 128.91 429.34000000000003 106.96 406.09000000000003 102.86 C 388.02000000000004 99.67999999999999 378.55 114.28 372.3 123.94 C 370.88710841406026 126.3195994179476 369.2603868906629 128.565546212597 367.44 130.65 C 363.85 134.24 361.37 132.3 358.49 130.06 C 355.92 128.06 352.72 125.59 347.57 125.91 C 337.75 126.52 334.62 132.06 332.57 135.73 C 332.34999999999997 136.11999999999998 332.14 136.5 331.94 136.84 C 331.68433528091083 137.29824217815255 331.2365346447227 137.61757541871293 330.71999999999997 137.71 C 329.24999999999994 137.97 327.23999999999995 136.35 324.91999999999996 134.47 C 322.28999999999996 132.33 319.30999999999995 129.91 317.31999999999994 130.6 C 313.0999999999999 132.07 311.10999999999996 136.79 311.0899999999999 136.84 C 311.02673622939295 137.0012353576774 310.88151540388844 137.11588337781254 310.7099999999999 137.14000000000001 Z" stroke-linecap="round" />
</g>
		<g transform="matrix(1 0 0 1 -137.286329786 -81.8853228852)" id="Z_0FsX8IsSiC0CBdrTD7a"  >
<path style="stroke: none; stroke-width: 1; stroke-dasharray: none; stroke-linecap: butt; stroke-dashoffset: 0; stroke-linejoin: miter; stroke-miterlimit: 4; fill: rgb(255,255,255); fill-rule: nonzero; opacity: 1;" vector-effect="non-scaling-stroke"  transform=" translate(-112.713670214, -168.1146771148)" d="M 152.13 173.91 C 152.13 173.91 143.81 158.23 127.13 155.29 C 110.44999999999999 152.35 104.13 170.48 99.69 174.89 C 95.25 179.29999999999998 93.83 171 86 171.46 C 78.17 171.92000000000002 76.2 176.85 74.73 179.3 C 73.26 181.75000000000003 67.81 173.67000000000002 64.65 174.77 C 61.49000000000001 175.87 60.080000000000005 179.35000000000002 60.080000000000005 179.35000000000002 L 48.760000000000005 181.26000000000002 L 176.63 181.26000000000002 C 176.63 181.26000000000002 177.63 172.93 169.28 170.97000000000003 C 160.93 169.01000000000005 155.56 174.89 152.13 173.91 Z" stroke-linecap="round" />
</g>
		<g transform="matrix(1 0 0 1 -137.3344725862 -81.8857654851)" id="HHJb_SPakBxGGdS0bCtX1"  >
<path style="stroke: none; stroke-width: 1; stroke-dasharray: none; stroke-linecap: butt; stroke-dashoffset: 0; stroke-linejoin: miter; stroke-miterlimit: 4; fill: rgb(38,50,56); fill-rule: nonzero; opacity: 1;" vector-effect="non-scaling-stroke"  transform=" translate(-112.6655274138, -168.1142345149)" d="M 176.63 181.76 L 48.76 181.76 C 48.4838576250846 181.7820913899932 48.24209138999323 181.57614237491538 48.22 181.29999999999998 C 48.19790861000677 181.0238576250846 48.403857625084605 180.7820913899932 48.68 180.76 L 59.68 178.89999999999998 C 60.62469870010709 176.81765953246924 62.32658816257881 175.17297643848397 64.44 174.29999999999998 C 66.28 173.64999999999998 68.57 175.51999999999998 70.59 177.16 C 71.87 178.16 73.32000000000001 179.35999999999999 73.98 179.25 C 74.06 179.25 74.15 179.2 74.25 179.04 C 74.35 178.88 74.53 178.54999999999998 74.69 178.28 C 76.14 175.71 78.56 171.42 85.91 170.96 C 89.85 170.71 92.22999999999999 172.56 94.14999999999999 174.05 C 96.07 175.54000000000002 97.32 176.52 99.30999999999999 174.53 C 100.54297433069952 173.11314809569262 101.64419927988268 171.586830232995 102.6 169.97 C 107.11999999999999 162.97 113.94 152.46 127.17999999999999 154.8 C 142.85999999999999 157.56 151.35999999999999 171.62 152.41 173.47000000000003 C 153.59 173.70000000000002 155.10999999999999 173.06000000000003 157.01 172.27000000000004 C 160.20999999999998 170.93000000000004 164.19 169.27000000000004 169.35 170.48000000000005 C 178.01 172.48000000000005 177.09 181.23000000000005 177.07999999999998 181.31000000000006 C 177.05346508839244 181.546668364899 176.86666836489894 181.73346508839248 176.63 181.76 Z M 54.72999999999999 180.76 L 176.16 180.76 C 176.23 179.04999999999998 175.97 173.04999999999998 169.16 171.45 C 164.32 170.31 160.5 171.91 157.43 173.19 C 155.34 174.07 153.53 174.82999999999998 151.99 174.39 C 151.85906526231 174.34831700274214 151.74847586230362 174.259132002737 151.68 174.14 C 151.6 173.98999999999998 143.27 158.64 127.05000000000001 155.77999999999997 C 114.46000000000001 153.55999999999997 107.85000000000001 163.77999999999997 103.48000000000002 170.50999999999996 C 102.48359016927415 172.18566778856896 101.33901205893244 173.76866616924625 100.06000000000002 175.23999999999995 C 97.44000000000001 177.84999999999997 95.56000000000002 176.38999999999996 93.57000000000002 174.83999999999995 C 91.58000000000003 173.28999999999994 89.57000000000002 171.72999999999993 86.02000000000002 171.95999999999995 C 79.20000000000002 172.37999999999994 77.02000000000002 176.22999999999996 75.60000000000002 178.76999999999995 L 75.15000000000002 179.54999999999995 C 74.94015143054646 179.92121336057164 74.5715257117578 180.17556510653583 74.15000000000002 180.23999999999995 C 73.05000000000003 180.42999999999995 71.62000000000002 179.23999999999995 69.96000000000002 177.92999999999995 C 68.14000000000003 176.45999999999995 66.08000000000003 174.77999999999994 64.77000000000002 175.23999999999995 C 61.870000000000026 176.23999999999995 60.50000000000003 179.49999999999994 60.49000000000002 179.53999999999996 C 60.41907696126465 179.6953918394994 60.277609013281065 179.8070770615917 60.11000000000002 179.83999999999997 Z" stroke-linecap="round" />
</g>
		<g transform="matrix(1 0 0 1 60.6345124717 -55.8764332424)" id="iedFa0cNwzw7bu0zHXJvp"  >
<path style="stroke: none; stroke-width: 1; stroke-dasharray: none; stroke-linecap: butt; stroke-dashoffset: 0; stroke-linejoin: miter; stroke-miterlimit: 4; fill: rgb(255,255,255); fill-rule: nonzero; opacity: 1;" vector-effect="non-scaling-stroke"  transform=" translate(-310.6345124717, -194.1235667576)" d="M 342.92 198.87 C 342.92 198.87 336.09000000000003 186.02 322.44 183.61 C 308.78999999999996 181.20000000000002 303.57 196.06 300 199.68 C 296.43 203.3 295.18 196.46 288.76 196.86 C 282.34 197.26000000000002 280.76 201.28 279.52 203.29000000000002 C 278.28 205.30000000000004 273.84999999999997 198.68 271.26 199.58 C 269.5795559647969 200.30903876621016 268.2390387662102 201.64955596479692 267.51 203.33 L 258.24 204.9 L 363 204.9 C 363 204.9 363.8 198.07 357 196.46 C 350.2 194.85000000000002 345.73 199.68 342.92 198.87 Z" stroke-linecap="round" />
</g>
		<g transform="matrix(1 0 0 1 60.6012994223 -55.8573894297)" id="1H5qZtILPVG0FdHFiUq5z"  >
<path style="stroke: none; stroke-width: 1; stroke-dasharray: none; stroke-linecap: butt; stroke-dashoffset: 0; stroke-linejoin: miter; stroke-miterlimit: 4; fill: rgb(38,50,56); fill-rule: nonzero; opacity: 1;" vector-effect="non-scaling-stroke"  transform=" translate(-310.6012994223, -194.1426105703)" d="M 363 205.4 L 258.19 205.4 C 257.9287531456746 205.4008372284497 257.71089851412313 205.20041096742236 257.69 204.94 C 257.6706154957388 204.67887052504298 257.8521337078389 204.44548996662854 258.11 204.4 L 267.11 202.88 C 267.89811288501124 201.1729909594243 269.30172580682046 199.82652258405005 271.04 199.10999999999999 C 272.6 198.55999999999997 274.41 200.04 276.17 201.47 C 277.17 202.26 278.37 203.26 278.87 203.17 C 278.87 203.17 278.96 203.17 279.03000000000003 203.03 C 279.1000000000001 202.89000000000001 279.26000000000005 202.63 279.39000000000004 202.41 C 280.59000000000003 200.29 282.59000000000003 196.75 288.67 196.41 C 291.93 196.21 293.90000000000003 197.73 295.48 198.96 C 297.06 200.19000000000003 298.01 200.96 299.59000000000003 199.36 C 300.59582731516457 198.1991533242475 301.49606379672304 196.95087002454005 302.28000000000003 195.63000000000002 C 305.99 189.90000000000003 311.6 181.23000000000002 322.52000000000004 183.16000000000003 C 335.3 185.42000000000002 342.28000000000003 196.81000000000003 343.24 198.47000000000003 C 344.17 198.63000000000002 345.39 198.12000000000003 346.91 197.47000000000003 C 349.41 196.47000000000003 352.82000000000005 195.00000000000003 357.08000000000004 196.00000000000003 C 364.26000000000005 197.69000000000003 363.49000000000007 204.90000000000003 363.49000000000007 205.00000000000003 C 363.43906091366944 205.23075166523364 363.23627811443805 205.39628864419805 363 205.4 Z M 264.15 204.4 L 362.53 204.4 C 362.7905002142148 200.8417487764069 360.3590354509512 197.6469670327889 356.85999999999996 196.95000000000002 C 352.91999999999996 196.02 349.80999999999995 197.32000000000002 347.30999999999995 198.37 C 345.56999999999994 199.1 344.0799999999999 199.72 342.78 199.37 C 342.64915888809264 199.3388523949466 342.5391091270561 199.2508125861174 342.47999999999996 199.13 C 342.40999999999997 199 335.59999999999997 186.46 322.34999999999997 184.13 C 312.08 182.32999999999998 306.68999999999994 190.65 303.11999999999995 196.13 C 302.30304471503933 197.50907182805733 301.36251405010586 198.81108758841006 300.30999999999995 200.01999999999998 C 298.10999999999996 202.21999999999997 296.53999999999996 201.01999999999998 294.86999999999995 199.7 C 293.34999999999997 198.51999999999998 291.61999999999995 197.17 288.73999999999995 197.35 C 283.19999999999993 197.7 281.43999999999994 200.82999999999998 280.2699999999999 202.89 C 280.13999999999993 203.11999999999998 280.0199999999999 203.33999999999997 279.8999999999999 203.54 C 279.7247260347595 203.8563668759491 279.4161115740838 204.07680577643174 279.05999999999995 204.14 C 278.10999999999996 204.30999999999997 276.97999999999996 203.39 275.54999999999995 202.23 C 274.11999999999995 201.07 272.40999999999997 199.67999999999998 271.37999999999994 200.04 C 269.8325067371061 200.71867740510626 268.59972109403316 201.95860963161726 267.92999999999995 203.51 C 267.8618968122268 203.6675815800396 267.7190845292828 203.780328119206 267.54999999999995 203.81 Z" stroke-linecap="round" />
</g>
		<g transform="matrix(1 0 0 1 -126.5232301839 -200.9749905938)" id="xVOlnfipbfRROPaUPI89O"  >
<path style="stroke: none; stroke-width: 1; stroke-dasharray: none; stroke-linecap: butt; stroke-dashoffset: 0; stroke-linejoin: miter; stroke-miterlimit: 4; fill: rgb(255,255,255); fill-rule: nonzero; opacity: 1;" vector-effect="non-scaling-stroke"  transform=" translate(-123.4767698161, -49.0250094062)" d="M 144.4 52.11 C 144.4 52.11 139.98000000000002 43.78 131.13 42.22 C 122.27999999999997 40.66 118.89999999999999 50.29 116.56 52.629999999999995 C 114.22000000000001 54.96999999999999 113.43 50.55 109.27 50.809999999999995 C 105.10999999999999 51.06999999999999 104.07 53.669999999999995 103.27 54.97 C 102.47 56.27 99.58999999999999 51.97 97.92 52.57 C 96.8343456916956 53.0437746118959 95.96929367769526 53.91240122099542 95.5 55 L 89.5 56 L 157.42000000000002 56 C 157.71546188445393 53.448416025896464 156.029485992083 51.08804977657717 153.52 50.54 C 149.08 49.51 146.22 52.63 144.4 52.11 Z" stroke-linecap="round" />
</g>
		<g transform="matrix(1 0 0 1 -126.5382739146 -200.9707497032)" id="dFcP8hZepdTob8oBaA55r"  >
<path style="stroke: none; stroke-width: 1; stroke-dasharray: none; stroke-linecap: butt; stroke-dashoffset: 0; stroke-linejoin: miter; stroke-miterlimit: 4; fill: rgb(38,50,56); fill-rule: nonzero; opacity: 1;" vector-effect="non-scaling-stroke"  transform=" translate(-123.4617260854, -49.0292502968)" d="M 157.41 56.51 L 89.49 56.51 C 89.23067606096232 56.51048645906121 89.01587654752662 56.308837936244025 89 56.05 C 88.97564015408578 55.79289154082332 89.1550175345717 55.561013463609825 89.41 55.519999999999996 L 95.16 54.519999999999996 C 95.69782037920672 53.40920933700968 96.62745000483909 52.5365685006881 97.77 52.06999999999999 C 98.86999999999999 51.67999999999999 100.14 52.709999999999994 101.25999999999999 53.61999999999999 C 101.77 54.02999999999999 102.60999999999999 54.709999999999994 102.88 54.68999999999999 C 102.940178328314 54.55173665787638 103.0103646583774 54.41804841013659 103.08999999999999 54.28999999999999 C 104.18718874049881 51.873707902450406 106.58637052368479 50.313264466231885 109.24 50.28999999999999 C 110.9176849898055 50.23268474254377 112.54867669563049 50.848357108318766 113.77 52 C 114.92999999999999 52.9 115.33 53.15 116.2 52.28 C 116.84312333632606 51.53595497752121 117.41872881315143 50.73613108821154 117.92 49.89 C 120.35000000000001 46.14 124.03 40.46 131.22 41.730000000000004 C 139.51 43.190000000000005 143.95 50.31 144.72 51.660000000000004 C 145.49018349815066 51.60376897674981 146.23984007701932 51.385687062897105 146.92 51.02 C 148.97914168788864 49.948264550600385 151.33765125945982 49.596248196634534 153.61999999999998 50.02 C 158.42 51.150000000000006 157.90999999999997 56.02 157.90999999999997 56.02 C 157.89945181331223 56.28999643904898 157.6801544219184 56.50490788261493 157.41 56.51 Z M 103.47 55.51 L 156.93 55.51 C 157.03451583757462 53.3359083068469 155.5266889742068 51.41491984532464 153.39 51 C 151.3187114653527 50.60854115835632 149.17590957661963 50.92925657262393 147.30999999999997 51.91 C 146.39007237072167 52.44956616022854 145.31922413318858 52.67426874121909 144.25999999999996 52.55 C 144.13024614827586 52.510777603466 144.02197764198365 52.420553848222504 143.95999999999995 52.3 C 143.95999999999995 52.22 139.53999999999996 44.169999999999995 131.03999999999996 42.669999999999995 C 124.50999999999996 41.519999999999996 121.03999999999996 46.85999999999999 118.75999999999996 50.38999999999999 C 118.22755639371475 51.316736633484005 117.60809516949276 52.19067922549451 116.91 53 C 115.38 54.54 114.2 53.62 113.16 52.81 C 112.12608163651373 51.815502192158036 110.73376298528372 51.281659807748596 109.3 51.330000000000005 C 106.98643923815213 51.34450062248656 104.8964142118958 52.71436721272946 103.96 54.830000000000005 L 103.71 55.25000000000001 C 103.64609078657 55.350243637842325 103.56481880086598 55.43828828902168 103.47 55.51 Z M 95.47 55.51 L 102.15 55.51 C 101.61407694126132 55.19789452802513 101.1085393059366 54.83631794117038 100.64 54.43 C 99.82000000000001 53.76 98.64 52.839999999999996 98.11 53.04 C 97.1575714949156 53.460423552738334 96.40246502068726 54.229844841644 96 55.19 C 95.93189681222687 55.34758158003961 95.7890845292828 55.460328119205975 95.62 55.489999999999995 Z" stroke-linecap="round" />
</g>
</g>
</g>
<g transform="matrix(1.0223721402 0 0 1.0223721402 82.8627791569 60.9926627246)" id="Zc3U59fGANTLxH3Ns8uje"  >
<g style="opacity: 0;" vector-effect="non-scaling-stroke"   >
		<g transform="matrix(0.3159129025 0 0 0.3159129025 35.893061396 13.5195649297)" id="eY2VtrbfPBht3j5Cb1crC"  >
<path style="stroke: none; stroke-width: 1; stroke-dasharray: none; stroke-linecap: butt; stroke-dashoffset: 0; stroke-linejoin: miter; stroke-miterlimit: 4; fill: rgb(145,150,242); fill-rule: nonzero; opacity: 1;" vector-effect="non-scaling-stroke"  transform=" translate(-363.6169530017, -316.0428784588)" d="M 395.78 203.41 C 388.54999999999995 204.13 275.48999999999995 287.57 275.48999999999995 287.57 L 394.22 428.68 C 419.38000000000005 407.81 438.51000000000005 378.68 446.96000000000004 341.88 C 448.7154068546952 334.2726639693334 449.9780308100711 326.5599689614945 450.74 318.79 C 452.26364314629774 302.90765680544695 452.0523968018739 286.9065844944829 450.11 271.07 C 449.58000000000004 266.57000000000005 448.99 262.27000000000004 448.33000000000004 258.12000000000006 C 426.14 232.38 399.84 203 395.78 203.41 Z" stroke-linecap="round" />
</g>
		<g transform="matrix(0.3159129025 0 0 0.3159129025 35.893061396 13.5195649297)" id="HkfBJLUwYcLtQn99GQF_1"  >
<path style="stroke: none; stroke-width: 1; stroke-dasharray: none; stroke-linecap: butt; stroke-dashoffset: 0; stroke-linejoin: miter; stroke-miterlimit: 4; fill: rgb(255,255,255); fill-rule: nonzero; opacity: 0.7;" vector-effect="non-scaling-stroke"  transform=" translate(-363.6169530017, -316.0428784588)" d="M 395.78 203.41 C 388.54999999999995 204.13 275.48999999999995 287.57 275.48999999999995 287.57 L 394.22 428.68 C 419.38000000000005 407.81 438.51000000000005 378.68 446.96000000000004 341.88 C 448.7154068546952 334.2726639693334 449.9780308100711 326.5599689614945 450.74 318.79 C 452.26364314629774 302.90765680544695 452.0523968018739 286.9065844944829 450.11 271.07 C 449.58000000000004 266.57000000000005 448.99 262.27000000000004 448.33000000000004 258.12000000000006 C 426.14 232.38 399.84 203 395.78 203.41 Z" stroke-linecap="round" />
</g>
		<g transform="matrix(0.3159129025 0 0 0.3159129025 -9.6558778649 14.9029179385)" id="JhRZHiiA2RbYm4x9ny9z4"  >
<path style="stroke: none; stroke-width: 1; stroke-dasharray: none; stroke-linecap: butt; stroke-dashoffset: 0; stroke-linejoin: miter; stroke-miterlimit: 4; fill: rgb(145,150,242); fill-rule: nonzero; opacity: 1;" vector-effect="non-scaling-stroke"  transform=" translate(-219.435, -320.42178479)" d="M 173 399.3 C 188.14 416.90000000000003 209 439.59000000000003 237.69 453.48 L 353 453.48 C 367.73688265045706 447.37869483126195 381.4893013607551 439.129265524031 393.80999999999995 429 C 359.68 387.34000000000003 197.81 190.71 179.06 187.48 C 164.06 184.89999999999998 87.59 225.81 45.06 249.39999999999998 C 65.43 342.09 147.36 369.49 173 399.3 Z" stroke-linecap="round" />
</g>
		<g transform="matrix(0.3159129025 0 0 0.3159129025 -9.6558778649 14.9029179385)" id="caLj02xlvVX5AugVNZuyk"  >
<path style="stroke: none; stroke-width: 1; stroke-dasharray: none; stroke-linecap: butt; stroke-dashoffset: 0; stroke-linejoin: miter; stroke-miterlimit: 4; fill: rgb(255,255,255); fill-rule: nonzero; opacity: 0.7;" vector-effect="non-scaling-stroke"  transform=" translate(-219.435, -320.42178479)" d="M 173 399.3 C 188.14 416.90000000000003 209 439.59000000000003 237.69 453.48 L 353 453.48 C 367.73688265045706 447.37869483126195 381.4893013607551 439.129265524031 393.80999999999995 429 C 359.68 387.34000000000003 197.81 190.71 179.06 187.48 C 164.06 184.89999999999998 87.59 225.81 45.06 249.39999999999998 C 65.43 342.09 147.36 369.49 173 399.3 Z" stroke-linecap="round" />
</g>
		<g transform="matrix(0.3159129025 0 0 0.3159129025 -69.2475588321 -4.9831801892)" id="FcuyrE3ckpA6mtdf-l5Sg"  >
<path style="stroke: none; stroke-width: 1; stroke-dasharray: none; stroke-linecap: butt; stroke-dashoffset: 0; stroke-linejoin: miter; stroke-miterlimit: 4; fill: rgb(38,50,56); fill-rule: nonzero; opacity: 1;" vector-effect="non-scaling-stroke"  transform=" translate(-30.8017390739, -257.4737444588)" d="M 16.52 266 C 16.33941610123764 266.00044291754585 16.1720621135012 265.9053554245138 16.08 265.75 C 15.95083612627845 265.5090460299999 16.034643800971896 265.20910277320235 16.27 265.07 C 16.38 265 28 258.32 44.84 249 C 45.083526504290994 248.87252498371865 45.384266737691114 248.9609779935422 45.52 249.2 C 45.6548655133448 249.44029737093868 45.569891693058075 249.74441420143856 45.330000000000005 249.88 C 28.520000000000007 259.2 16.880000000000006 265.88 16.770000000000007 265.98 C 16.689185003496736 266.0051445939395 16.60378469351745 266.01197661873783 16.52 266 Z" stroke-linecap="round" />
</g>
		<g transform="matrix(0.3159129025 0 0 0.3159129025 -28.0993730415 -12.2205717925)" id="mJvjC_PimlXsZ8csqHDtt"  >
<path style="stroke: none; stroke-width: 1; stroke-dasharray: none; stroke-linecap: butt; stroke-dashoffset: 0; stroke-linejoin: miter; stroke-miterlimit: 4; fill: rgb(38,50,56); fill-rule: nonzero; opacity: 1;" vector-effect="non-scaling-stroke"  transform=" translate(-161.053417511, -234.5642920559)" d="M 270.21 282.24 C 270.0640723936038 282.2440671301631 269.9242248431718 282.1815037523383 269.83 282.07 C 203.85 205.9 184 188.87 179 188 C 164.81 185.55 93.41 223.36 52.11 246.12 C 51.99337192572828 246.18397897700928 51.856056738644085 246.19884578040998 51.72843798449444 246.1613108527189 C 51.6008192303448 246.12377592502784 51.4934184252107 246.03693382979822 51.43 245.92000000000002 C 51.36645420533257 245.80487891012208 51.35184509532881 245.66904796876892 51.38945733505448 245.54304696568792 C 51.42706957478015 245.41704596260695 51.513746517637976 245.311449663899 51.63 245.25000000000003 C 102.21000000000001 217.37000000000003 165.4 184.64000000000004 179.17000000000002 187.01000000000002 C 186.73000000000002 188.31000000000003 217.49 220.07000000000002 270.61 281.41 C 270.7416781011043 281.5544825474217 270.7748799981373 281.76340886277256 270.694479253321 281.9415942972302 C 270.61407850850475 282.1197797316879 270.43545982073005 282.233128466089 270.24 282.23 Z" stroke-linecap="round" />
</g>
		<g transform="matrix(0.3159129025 0 0 0.3159129025 27.41672111 27.7607938006)" id="wTkb_UnrodFfk27FQ_TIE"  >
<path style="stroke: none; stroke-width: 1; stroke-dasharray: none; stroke-linecap: butt; stroke-dashoffset: 0; stroke-linejoin: miter; stroke-miterlimit: 4; fill: rgb(38,50,56); fill-rule: nonzero; opacity: 1;" vector-effect="non-scaling-stroke"  transform=" translate(-336.7856959721, -361.1224834961)" d="M 400.11 437.24 C 399.9598403690805 437.2403399061009 399.8171619783442 437.1744883411457 399.72 437.06 C 399.06 436.24 332.72 354.81 273.08000000000004 285.83000000000004 C 272.90050745630504 285.62013179506437 272.9251317950644 285.30449254369506 273.13500000000005 285.12500000000006 C 273.3448682049357 284.94550745630505 273.660507456305 284.9701317950644 273.84000000000003 285.18000000000006 C 333.44000000000005 354.18000000000006 399.84000000000003 435.61000000000007 400.5 436.43000000000006 C 400.6725194875154 436.6430651644176 400.6412943817067 436.95531622250473 400.43 437.13000000000005 C 400.3372281962088 437.1987869603154 400.2254576060135 437.23720810069494 400.11 437.24 Z" stroke-linecap="round" />
</g>
		<g transform="matrix(0.3159129025 0 0 0.3159129025 71.930990462 6.1695303061)" id="GmVWGu9UaaMytX4uXxlj4"  >
<path style="stroke: none; stroke-width: 1; stroke-dasharray: none; stroke-linecap: butt; stroke-dashoffset: 0; stroke-linejoin: miter; stroke-miterlimit: 4; fill: rgb(38,50,56); fill-rule: nonzero; opacity: 1;" vector-effect="non-scaling-stroke"  transform=" translate(-477.6924743903, -292.776862524)" d="M 480.3 296.37 C 480.14953774302813 296.3717408671755 480.0062922190141 296.30562754839974 479.91 296.19 L 474.7 290 C 474.5274805124846 289.7869348355825 474.5587056182933 289.47468377749533 474.77 289.3 C 474.870019261086 289.21335927875884 475.0008286649954 289.17085503662116 475.1326723493839 289.18215592385445 C 475.26451603377234 289.19345681108774 475.3861840599514 289.25760197580445 475.46999999999997 289.36 L 480.67999999999995 295.6 C 480.85605378916426 295.81371371069014 480.82942156712136 296.12886167153124 480.61999999999995 296.31 C 480.52162945663684 296.361250189684 480.4102548770579 296.382132923355 480.3 296.37 Z" stroke-linecap="round" />
</g>
		<g transform="matrix(0.3159129025 0 0 0.3159129025 39.0687613239 -8.8360928525)" id="ZCe9Kfi7sozPNmBCsWgIw"  >
<path style="stroke: none; stroke-width: 1; stroke-dasharray: none; stroke-linecap: butt; stroke-dashoffset: 0; stroke-linejoin: miter; stroke-miterlimit: 4; fill: rgb(38,50,56); fill-rule: nonzero; opacity: 1;" vector-effect="non-scaling-stroke"  transform=" translate(-373.6694070256, -245.2776213096)" d="M 276.33 287.65 C 276.11478479596326 287.65 275.92371537416017 287.5122849525646 275.85565835097475 287.3081138830084 C 275.78760132778933 287.10394281345225 275.8578278367706 286.87912912242206 276.03 286.75 C 280.61999999999995 283.36 388.45 203.64 395.72999999999996 202.91 C 401.36999999999995 202.32999999999998 445.56999999999994 253.75 471.39 284.44 C 471.569492543695 284.65262962868485 471.54262962868484 284.970507456305 471.33 285.15 C 471.11737037131513 285.329492543695 470.799492543695 285.3026296286848 470.62 285.09 C 427.82 234.18999999999997 399.94 203.89999999999998 395.9 203.89999999999998 L 395.83 203.89999999999998 C 390.21999999999997 204.45999999999998 315.40999999999997 258.9 276.63 287.54999999999995 C 276.5445521010735 287.6169838279541 276.43854861591365 287.65231832300736 276.33 287.65 Z" stroke-linecap="round" />
</g>
		<g transform="matrix(0.3159129025 0 0 0.3159129025 42.842686483 -48.2102923762)" id="TLF4nluwHTzyfoccHI1h3"  >
<path style="stroke: none; stroke-width: 1; stroke-dasharray: none; stroke-linecap: butt; stroke-dashoffset: 0; stroke-linejoin: miter; stroke-miterlimit: 4; fill: rgb(255,255,255); fill-rule: nonzero; opacity: 1;" vector-effect="non-scaling-stroke"  transform=" translate(-385.6155008041, -120.6413712162)" d="M 441.78 128.9 C 441.78 128.9 429.91999999999996 106.56 406.17999999999995 102.37 C 382.43999999999994 98.18 373.37 124 367.09 130.3 C 360.80999999999995 136.60000000000002 358.71 124.71000000000001 347.53999999999996 125.41000000000001 C 336.36999999999995 126.11000000000001 333.53999999999996 133.09 331.48999999999995 136.58 C 329.43999999999994 140.07000000000002 321.62999999999994 128.58 317.12999999999994 130.13000000000002 C 312.62999999999994 131.68000000000004 310.60999999999996 136.65000000000003 310.60999999999996 136.65000000000003 L 294.48999999999995 139.37000000000003 L 476.68999999999994 139.37000000000003 C 476.68999999999994 139.37000000000003 478.0899999999999 127.50000000000003 466.2199999999999 124.71000000000004 C 454.3499999999999 121.92000000000004 446.67 130.3 441.78 128.9 Z" stroke-linecap="round" />
</g>
		<g transform="matrix(0.3159129025 0 0 0.3159129025 42.8412424059 -48.2216776098)" id="_edvWtYYYj_LPcbyStz2J"  >
<path style="stroke: none; stroke-width: 1; stroke-dasharray: none; stroke-linecap: butt; stroke-dashoffset: 0; stroke-linejoin: miter; stroke-miterlimit: 4; fill: rgb(38,50,56); fill-rule: nonzero; opacity: 1;" vector-effect="non-scaling-stroke"  transform=" translate(-385.6109296799, -120.6053320628)" d="M 476.69 139.87 L 294.49 139.87 C 294.2287531456746 139.8708372284497 294.01089851412314 139.67041096742236 293.99 139.41 C 293.9661230195303 139.14955721478356 294.1509921879785 138.91626993078944 294.41 138.88 L 310.26000000000005 136.2 C 310.76000000000005 135.11999999999998 312.86000000000007 131.07999999999998 316.97 129.66 C 319.48 128.78 322.70000000000005 131.39 325.53000000000003 133.66 C 327.53000000000003 135.24 329.53000000000003 136.87 330.53000000000003 136.66 C 330.7612908868633 136.61423761940134 330.95759923686785 136.46237644298276 331.06 136.25 C 331.26 135.92 331.46 135.55 331.68 135.16 C 333.73 131.54 337.15000000000003 125.49 347.51 124.84 C 353.03999999999996 124.5 356.4 127.11 359.09999999999997 129.20000000000002 C 362.01 131.47000000000003 363.77 132.84 366.73999999999995 129.87 C 368.50424075996386 127.83434600238331 370.0838054803817 125.6457118346857 371.46 123.32999999999998 C 377.85999999999996 113.44 387.53 98.5 406.27 101.81 C 428.78 105.81 440.86 126.17 442.12 128.4 C 443.87 128.79 446.12 127.86 448.88 126.69000000000001 C 453.40999999999997 124.80000000000001 459.05 122.44000000000001 466.33 124.15 C 478.49 127.02000000000001 477.2 139.24 477.19 139.36 C 477.1900534086767 139.6378057479027 476.9677523443599 139.8645528335058 476.69 139.87 Z M 300.45 138.87 L 476.23 138.87 C 476.35 136.72 476.23 127.58000000000001 466.1 125.2 C 459.1 123.56 453.66 125.85000000000001 449.26000000000005 127.69 C 446.19000000000005 128.97 443.77000000000004 129.98 441.65000000000003 129.38 C 441.51906526231 129.33831700274214 441.40847586230365 129.249132002737 441.34000000000003 129.13 C 441.22 128.91 429.34000000000003 106.96 406.09000000000003 102.86 C 388.02000000000004 99.67999999999999 378.55 114.28 372.3 123.94 C 370.88710841406026 126.3195994179476 369.2603868906629 128.565546212597 367.44 130.65 C 363.85 134.24 361.37 132.3 358.49 130.06 C 355.92 128.06 352.72 125.59 347.57 125.91 C 337.75 126.52 334.62 132.06 332.57 135.73 C 332.34999999999997 136.11999999999998 332.14 136.5 331.94 136.84 C 331.68433528091083 137.29824217815255 331.2365346447227 137.61757541871293 330.71999999999997 137.71 C 329.24999999999994 137.97 327.23999999999995 136.35 324.91999999999996 134.47 C 322.28999999999996 132.33 319.30999999999995 129.91 317.31999999999994 130.6 C 313.0999999999999 132.07 311.10999999999996 136.79 311.0899999999999 136.84 C 311.02673622939295 137.0012353576774 310.88151540388844 137.11588337781254 310.7099999999999 137.14000000000001 Z" stroke-linecap="round" />
</g>
		<g transform="matrix(0.3159129025 0 0 0.3159129025 -43.3705229163 -33.2128625185)" id="ovpPl05zFt9twlRM6OMgn"  >
<path style="stroke: none; stroke-width: 1; stroke-dasharray: none; stroke-linecap: butt; stroke-dashoffset: 0; stroke-linejoin: miter; stroke-miterlimit: 4; fill: rgb(255,255,255); fill-rule: nonzero; opacity: 1;" vector-effect="non-scaling-stroke"  transform=" translate(-112.713670214, -168.1146771148)" d="M 152.13 173.91 C 152.13 173.91 143.81 158.23 127.13 155.29 C 110.44999999999999 152.35 104.13 170.48 99.69 174.89 C 95.25 179.29999999999998 93.83 171 86 171.46 C 78.17 171.92000000000002 76.2 176.85 74.73 179.3 C 73.26 181.75000000000003 67.81 173.67000000000002 64.65 174.77 C 61.49000000000001 175.87 60.080000000000005 179.35000000000002 60.080000000000005 179.35000000000002 L 48.760000000000005 181.26000000000002 L 176.63 181.26000000000002 C 176.63 181.26000000000002 177.63 172.93 169.28 170.97000000000003 C 160.93 169.01000000000005 155.56 174.89 152.13 173.91 Z" stroke-linecap="round" />
</g>
		<g transform="matrix(0.3159129025 0 0 0.3159129025 -43.385731848 -33.2130023415)" id="SCBwVaP49_ggRn_C-aR7K"  >
<path style="stroke: none; stroke-width: 1; stroke-dasharray: none; stroke-linecap: butt; stroke-dashoffset: 0; stroke-linejoin: miter; stroke-miterlimit: 4; fill: rgb(38,50,56); fill-rule: nonzero; opacity: 1;" vector-effect="non-scaling-stroke"  transform=" translate(-112.6655274138, -168.1142345149)" d="M 176.63 181.76 L 48.76 181.76 C 48.4838576250846 181.7820913899932 48.24209138999323 181.57614237491538 48.22 181.29999999999998 C 48.19790861000677 181.0238576250846 48.403857625084605 180.7820913899932 48.68 180.76 L 59.68 178.89999999999998 C 60.62469870010709 176.81765953246924 62.32658816257881 175.17297643848397 64.44 174.29999999999998 C 66.28 173.64999999999998 68.57 175.51999999999998 70.59 177.16 C 71.87 178.16 73.32000000000001 179.35999999999999 73.98 179.25 C 74.06 179.25 74.15 179.2 74.25 179.04 C 74.35 178.88 74.53 178.54999999999998 74.69 178.28 C 76.14 175.71 78.56 171.42 85.91 170.96 C 89.85 170.71 92.22999999999999 172.56 94.14999999999999 174.05 C 96.07 175.54000000000002 97.32 176.52 99.30999999999999 174.53 C 100.54297433069952 173.11314809569262 101.64419927988268 171.586830232995 102.6 169.97 C 107.11999999999999 162.97 113.94 152.46 127.17999999999999 154.8 C 142.85999999999999 157.56 151.35999999999999 171.62 152.41 173.47000000000003 C 153.59 173.70000000000002 155.10999999999999 173.06000000000003 157.01 172.27000000000004 C 160.20999999999998 170.93000000000004 164.19 169.27000000000004 169.35 170.48000000000005 C 178.01 172.48000000000005 177.09 181.23000000000005 177.07999999999998 181.31000000000006 C 177.05346508839244 181.546668364899 176.86666836489894 181.73346508839248 176.63 181.76 Z M 54.72999999999999 180.76 L 176.16 180.76 C 176.23 179.04999999999998 175.97 173.04999999999998 169.16 171.45 C 164.32 170.31 160.5 171.91 157.43 173.19 C 155.34 174.07 153.53 174.82999999999998 151.99 174.39 C 151.85906526231 174.34831700274214 151.74847586230362 174.259132002737 151.68 174.14 C 151.6 173.98999999999998 143.27 158.64 127.05000000000001 155.77999999999997 C 114.46000000000001 153.55999999999997 107.85000000000001 163.77999999999997 103.48000000000002 170.50999999999996 C 102.48359016927415 172.18566778856896 101.33901205893244 173.76866616924625 100.06000000000002 175.23999999999995 C 97.44000000000001 177.84999999999997 95.56000000000002 176.38999999999996 93.57000000000002 174.83999999999995 C 91.58000000000003 173.28999999999994 89.57000000000002 171.72999999999993 86.02000000000002 171.95999999999995 C 79.20000000000002 172.37999999999994 77.02000000000002 176.22999999999996 75.60000000000002 178.76999999999995 L 75.15000000000002 179.54999999999995 C 74.94015143054646 179.92121336057164 74.5715257117578 180.17556510653583 74.15000000000002 180.23999999999995 C 73.05000000000003 180.42999999999995 71.62000000000002 179.23999999999995 69.96000000000002 177.92999999999995 C 68.14000000000003 176.45999999999995 66.08000000000003 174.77999999999994 64.77000000000002 175.23999999999995 C 61.870000000000026 176.23999999999995 60.50000000000003 179.49999999999994 60.49000000000002 179.53999999999996 C 60.41907696126465 179.6953918394994 60.277609013281065 179.8070770615917 60.11000000000002 179.83999999999997 Z" stroke-linecap="round" />
</g>
		<g transform="matrix(0.3159129025 0 0 0.3159129025 19.1552248266 -24.9963187007)" id="sxZ8MsI3uaaXlusDNbEza"  >
<path style="stroke: none; stroke-width: 1; stroke-dasharray: none; stroke-linecap: butt; stroke-dashoffset: 0; stroke-linejoin: miter; stroke-miterlimit: 4; fill: rgb(255,255,255); fill-rule: nonzero; opacity: 1;" vector-effect="non-scaling-stroke"  transform=" translate(-310.6345124717, -194.1235667576)" d="M 342.92 198.87 C 342.92 198.87 336.09000000000003 186.02 322.44 183.61 C 308.78999999999996 181.20000000000002 303.57 196.06 300 199.68 C 296.43 203.3 295.18 196.46 288.76 196.86 C 282.34 197.26000000000002 280.76 201.28 279.52 203.29000000000002 C 278.28 205.30000000000004 273.84999999999997 198.68 271.26 199.58 C 269.5795559647969 200.30903876621016 268.2390387662102 201.64955596479692 267.51 203.33 L 258.24 204.9 L 363 204.9 C 363 204.9 363.8 198.07 357 196.46 C 350.2 194.85000000000002 345.73 199.68 342.92 198.87 Z" stroke-linecap="round" />
</g>
		<g transform="matrix(0.3159129025 0 0 0.3159129025 19.1447323958 -24.9903025145)" id="tNj9pQ9H8Vxmquy3mwPrp"  >
<path style="stroke: none; stroke-width: 1; stroke-dasharray: none; stroke-linecap: butt; stroke-dashoffset: 0; stroke-linejoin: miter; stroke-miterlimit: 4; fill: rgb(38,50,56); fill-rule: nonzero; opacity: 1;" vector-effect="non-scaling-stroke"  transform=" translate(-310.6012994223, -194.1426105703)" d="M 363 205.4 L 258.19 205.4 C 257.9287531456746 205.4008372284497 257.71089851412313 205.20041096742236 257.69 204.94 C 257.6706154957388 204.67887052504298 257.8521337078389 204.44548996662854 258.11 204.4 L 267.11 202.88 C 267.89811288501124 201.1729909594243 269.30172580682046 199.82652258405005 271.04 199.10999999999999 C 272.6 198.55999999999997 274.41 200.04 276.17 201.47 C 277.17 202.26 278.37 203.26 278.87 203.17 C 278.87 203.17 278.96 203.17 279.03000000000003 203.03 C 279.1000000000001 202.89000000000001 279.26000000000005 202.63 279.39000000000004 202.41 C 280.59000000000003 200.29 282.59000000000003 196.75 288.67 196.41 C 291.93 196.21 293.90000000000003 197.73 295.48 198.96 C 297.06 200.19000000000003 298.01 200.96 299.59000000000003 199.36 C 300.59582731516457 198.1991533242475 301.49606379672304 196.95087002454005 302.28000000000003 195.63000000000002 C 305.99 189.90000000000003 311.6 181.23000000000002 322.52000000000004 183.16000000000003 C 335.3 185.42000000000002 342.28000000000003 196.81000000000003 343.24 198.47000000000003 C 344.17 198.63000000000002 345.39 198.12000000000003 346.91 197.47000000000003 C 349.41 196.47000000000003 352.82000000000005 195.00000000000003 357.08000000000004 196.00000000000003 C 364.26000000000005 197.69000000000003 363.49000000000007 204.90000000000003 363.49000000000007 205.00000000000003 C 363.43906091366944 205.23075166523364 363.23627811443805 205.39628864419805 363 205.4 Z M 264.15 204.4 L 362.53 204.4 C 362.7905002142148 200.8417487764069 360.3590354509512 197.6469670327889 356.85999999999996 196.95000000000002 C 352.91999999999996 196.02 349.80999999999995 197.32000000000002 347.30999999999995 198.37 C 345.56999999999994 199.1 344.0799999999999 199.72 342.78 199.37 C 342.64915888809264 199.3388523949466 342.5391091270561 199.2508125861174 342.47999999999996 199.13 C 342.40999999999997 199 335.59999999999997 186.46 322.34999999999997 184.13 C 312.08 182.32999999999998 306.68999999999994 190.65 303.11999999999995 196.13 C 302.30304471503933 197.50907182805733 301.36251405010586 198.81108758841006 300.30999999999995 200.01999999999998 C 298.10999999999996 202.21999999999997 296.53999999999996 201.01999999999998 294.86999999999995 199.7 C 293.34999999999997 198.51999999999998 291.61999999999995 197.17 288.73999999999995 197.35 C 283.19999999999993 197.7 281.43999999999994 200.82999999999998 280.2699999999999 202.89 C 280.13999999999993 203.11999999999998 280.0199999999999 203.33999999999997 279.8999999999999 203.54 C 279.7247260347595 203.8563668759491 279.4161115740838 204.07680577643174 279.05999999999995 204.14 C 278.10999999999996 204.30999999999997 276.97999999999996 203.39 275.54999999999995 202.23 C 274.11999999999995 201.07 272.40999999999997 199.67999999999998 271.37999999999994 200.04 C 269.8325067371061 200.71867740510626 268.59972109403316 201.95860963161726 267.92999999999995 203.51 C 267.8618968122268 203.6675815800396 267.7190845292828 203.780328119206 267.54999999999995 203.81 Z" stroke-linecap="round" />
</g>
		<g transform="matrix(0.3159129025 0 0 0.3159129025 -39.9703208811 -70.8348251021)" id="6H6tSjBj9LEnGDEh6pE4k"  >
<path style="stroke: none; stroke-width: 1; stroke-dasharray: none; stroke-linecap: butt; stroke-dashoffset: 0; stroke-linejoin: miter; stroke-miterlimit: 4; fill: rgb(255,255,255); fill-rule: nonzero; opacity: 1;" vector-effect="non-scaling-stroke"  transform=" translate(-123.4767698161, -49.0250094062)" d="M 144.4 52.11 C 144.4 52.11 139.98000000000002 43.78 131.13 42.22 C 122.27999999999997 40.66 118.89999999999999 50.29 116.56 52.629999999999995 C 114.22000000000001 54.96999999999999 113.43 50.55 109.27 50.809999999999995 C 105.10999999999999 51.06999999999999 104.07 53.669999999999995 103.27 54.97 C 102.47 56.27 99.58999999999999 51.97 97.92 52.57 C 96.8343456916956 53.0437746118959 95.96929367769526 53.91240122099542 95.5 55 L 89.5 56 L 157.42000000000002 56 C 157.71546188445393 53.448416025896464 156.029485992083 51.08804977657717 153.52 50.54 C 149.08 49.51 146.22 52.63 144.4 52.11 Z" stroke-linecap="round" />
</g>
		<g transform="matrix(0.3159129025 0 0 0.3159129025 -39.9750733897 -70.83348535)" id="1VoRPKj42bSM1pXoXtQkM"  >
<path style="stroke: none; stroke-width: 1; stroke-dasharray: none; stroke-linecap: butt; stroke-dashoffset: 0; stroke-linejoin: miter; stroke-miterlimit: 4; fill: rgb(38,50,56); fill-rule: nonzero; opacity: 1;" vector-effect="non-scaling-stroke"  transform=" translate(-123.4617260854, -49.0292502968)" d="M 157.41 56.51 L 89.49 56.51 C 89.23067606096232 56.51048645906121 89.01587654752662 56.308837936244025 89 56.05 C 88.97564015408578 55.79289154082332 89.1550175345717 55.561013463609825 89.41 55.519999999999996 L 95.16 54.519999999999996 C 95.69782037920672 53.40920933700968 96.62745000483909 52.5365685006881 97.77 52.06999999999999 C 98.86999999999999 51.67999999999999 100.14 52.709999999999994 101.25999999999999 53.61999999999999 C 101.77 54.02999999999999 102.60999999999999 54.709999999999994 102.88 54.68999999999999 C 102.940178328314 54.55173665787638 103.0103646583774 54.41804841013659 103.08999999999999 54.28999999999999 C 104.18718874049881 51.873707902450406 106.58637052368479 50.313264466231885 109.24 50.28999999999999 C 110.9176849898055 50.23268474254377 112.54867669563049 50.848357108318766 113.77 52 C 114.92999999999999 52.9 115.33 53.15 116.2 52.28 C 116.84312333632606 51.53595497752121 117.41872881315143 50.73613108821154 117.92 49.89 C 120.35000000000001 46.14 124.03 40.46 131.22 41.730000000000004 C 139.51 43.190000000000005 143.95 50.31 144.72 51.660000000000004 C 145.49018349815066 51.60376897674981 146.23984007701932 51.385687062897105 146.92 51.02 C 148.97914168788864 49.948264550600385 151.33765125945982 49.596248196634534 153.61999999999998 50.02 C 158.42 51.150000000000006 157.90999999999997 56.02 157.90999999999997 56.02 C 157.89945181331223 56.28999643904898 157.6801544219184 56.50490788261493 157.41 56.51 Z M 103.47 55.51 L 156.93 55.51 C 157.03451583757462 53.3359083068469 155.5266889742068 51.41491984532464 153.39 51 C 151.3187114653527 50.60854115835632 149.17590957661963 50.92925657262393 147.30999999999997 51.91 C 146.39007237072167 52.44956616022854 145.31922413318858 52.67426874121909 144.25999999999996 52.55 C 144.13024614827586 52.510777603466 144.02197764198365 52.420553848222504 143.95999999999995 52.3 C 143.95999999999995 52.22 139.53999999999996 44.169999999999995 131.03999999999996 42.669999999999995 C 124.50999999999996 41.519999999999996 121.03999999999996 46.85999999999999 118.75999999999996 50.38999999999999 C 118.22755639371475 51.316736633484005 117.60809516949276 52.19067922549451 116.91 53 C 115.38 54.54 114.2 53.62 113.16 52.81 C 112.12608163651373 51.815502192158036 110.73376298528372 51.281659807748596 109.3 51.330000000000005 C 106.98643923815213 51.34450062248656 104.8964142118958 52.71436721272946 103.96 54.830000000000005 L 103.71 55.25000000000001 C 103.64609078657 55.350243637842325 103.56481880086598 55.43828828902168 103.47 55.51 Z M 95.47 55.51 L 102.15 55.51 C 101.61407694126132 55.19789452802513 101.1085393059366 54.83631794117038 100.64 54.43 C 99.82000000000001 53.76 98.64 52.839999999999996 98.11 53.04 C 97.1575714949156 53.460423552738334 96.40246502068726 54.229844841644 96 55.19 C 95.93189681222687 55.34758158003961 95.7890845292828 55.460328119205975 95.62 55.489999999999995 Z" stroke-linecap="round" />
</g>
		<g transform="matrix(1 0 0 1 -3.5878703037 9.2699703094)" id="3KWSZepnZYpzevzkOvNX0"  >
<path style="stroke: rgb(173,251,143); stroke-width: 0; stroke-dasharray: none; stroke-linecap: butt; stroke-dashoffset: 0; stroke-linejoin: miter; stroke-miterlimit: 4; fill: rgb(222,223,251); fill-rule: nonzero; opacity: 1;" vector-effect="non-scaling-stroke"  transform=" translate(0, 0)" d="M 0 -14.81481 C 3.88754 -14.81481 2.42856 -11.72222 5.07224 -9.26997 C 7.98978 -6.563700000000001 14.814810000000001 -4.290240000000001 14.814810000000001 0 C 14.814810000000001 8.17778 8.177770000000002 14.81481 1.7763568394002505e-15 14.81481 C -8.177779999999998 14.81481 -14.814809999999998 8.177769999999999 -14.814809999999998 0 C -14.814809999999998 -8.17778 -8.177769999999999 -14.81481 1.7763568394002505e-15 -14.81481 z" stroke-linecap="round" />
</g>
		<g transform="matrix(0.0901027169 0 0 -0.0901027169 -38.9395547187 22.0741965414)" id="5b-BZPSWPj3vPOJZ5G6vk"  >
<path style="stroke: none; stroke-width: 1; stroke-dasharray: none; stroke-linecap: butt; stroke-dashoffset: 0; stroke-linejoin: miter; stroke-miterlimit: 4; fill: rgb(0,0,0); fill-rule: nonzero; opacity: 1;" vector-effect="non-scaling-stroke"  transform=" translate(-444.3669655866, -290.2941138282)" d="M 411 532 C 389 522 367 498 353 471 C 332 431 330 414 330 286 C 330 169 334 138 349 103 C 372 53 418 25 463 34 C 533 48 551 93 557 277 C 564 445 551 495 496 530 C 456 554 454 554 411 532 z M 479 476 C 488 465 490 412 488 290 C 485 135 483 117 466 105 C 441 86 415 101 401 141 C 384 190 387 415 405 450 C 426 490 458 501 479 476 z" stroke-linecap="round" />
</g>
		<g transform="matrix(0.0901027169 0 0 -0.0901027169 -61.6482653325 22.0824308873)" id="6mYLh64IHKUa7DHkO3K95"  >
<path style="stroke: none; stroke-width: 1; stroke-dasharray: none; stroke-linecap: butt; stroke-dashoffset: 0; stroke-linejoin: miter; stroke-miterlimit: 4; fill: rgb(0,0,0); fill-rule: nonzero; opacity: 1;" vector-effect="non-scaling-stroke"  transform=" translate(-192.3356019372, -290.2027253973)" d="M 138 517 C 89 471 75 237 115 120 C 130 75 169 40 202 40 C 225 40 267 92 279 135 C 295 193 293 249 275 256 C 251 266 230 241 230 203 C 230 185 223 153 215 133 C 200 98 199 97 182 113 C 168 128 165 155 162 291 C 158 461 163 484 204 478 C 221 476 226 466 230 430 C 234 390 238 385 260 385 C 281 385 286 391 291 425 C 299 470 282 513 251 530 C 217 548 165 542 138 517 z" stroke-linecap="round" />
</g>
		<g transform="matrix(0.0901027169 0 0 -0.0901027169 -18.0687889896 21.9957721686)" id="xyv9YmKqy8cLW_YuGR_Rk"  >
<path style="stroke: none; stroke-width: 1; stroke-dasharray: none; stroke-linecap: butt; stroke-dashoffset: 0; stroke-linejoin: miter; stroke-miterlimit: 4; fill: rgb(0,0,0); fill-rule: nonzero; opacity: 1;" vector-effect="non-scaling-stroke"  transform=" translate(-676, -291.1645023747)" d="M 588 534 C 583 530 580 424 580 299 L 580 70 L 605 54 C 638 33 682 43 721 82 C 766 128 772 152 772 291 C 772 424 757 486 716 519 C 697 535 599 546 588 534 z M 678 471 C 706 454 719 387 717 273 C 715 177 712 158 694 133 C 650 75 645 90 642 293 C 639 485 641 495 678 471 z" stroke-linecap="round" />
</g>
		<g transform="matrix(0.0901027169 0 0 -0.0901027169 3.4657603543 21.8216020496)" id="ddq6cUH5Soj7hBdBtENCX"  >
<path style="stroke: none; stroke-width: 1; stroke-dasharray: none; stroke-linecap: butt; stroke-dashoffset: 0; stroke-linejoin: miter; stroke-miterlimit: 4; fill: rgb(0,0,0); fill-rule: nonzero; opacity: 1;" vector-effect="non-scaling-stroke"  transform=" translate(-915, -293.0975197678)" d="M 838 529 C 822 520 820 498 820 296 C 820 96 822 72 838 58 C 853 45 883 44 993 50 C 997 50 1000 59 1000 70 C 1000 95 971 110 921 110 L 880 110 L 880 223 C 880 349 880 348 959 370 C 994 379 1001 385 998 403 C 995 423 989 425 938 425 C 881 425 880 425 880 452 C 880 479 882 480 929 480 C 991 480 1010 487 1010 510 C 1010 520 1003 531 994 534 C 969 544 857 540 838 529 z" stroke-linecap="round" />
</g>
		<g transform="matrix(0.0507826107 0 0 -0.0507826107 31.0732336688 13.5697092137)" id="QFESO4RZ2fhP7GNQRNzzY"  >
<path style="stroke: none; stroke-width: 1; stroke-dasharray: none; stroke-linecap: butt; stroke-dashoffset: 0; stroke-linejoin: miter; stroke-miterlimit: 4; fill: rgb(0,0,0); fill-rule: nonzero; opacity: 1;" vector-effect="non-scaling-stroke"  transform=" translate(-147.7826086957, -320)" d="M 63 562 C 55 557 51 490 50 325 C 49 198 49 89 49 83 C 50 76 61 70 75 70 C 107 70 109 83 113 240 C 115 364 118 371 138 295 C 182 129 201 80 221 80 C 249 80 254 103 236 157 C 228 183 212 240 201 284 L 180 363 L 210 397 C 227 415 240 436 241 443 C 245 485 235 518 212 543 C 190 566 178 570 131 570 C 100 570 70 566 63 562 z M 172 503 C 209 470 186 415 138 422 C 120 424 114 432 112 458 C 110 477 111 498 114 506 C 121 525 149 524 172 503 z" stroke-linecap="round" />
</g>
		<g transform="matrix(0.0507826107 0 0 -0.0507826107 42.3351286422 13.5410520914)" id="Ls8IYQ2L-LBdwzAzrc2kr"  >
<path style="stroke: none; stroke-width: 1; stroke-dasharray: none; stroke-linecap: butt; stroke-dashoffset: 0; stroke-linejoin: miter; stroke-miterlimit: 4; fill: rgb(0,0,0); fill-rule: nonzero; opacity: 1;" vector-effect="non-scaling-stroke"  transform=" translate(-369.5493673105, -320.5643097494)" d="M 305 559 C 301 553 307 538 319 526 C 339 505 340 493 340 317 C 340 159 338 128 325 124 C 317 120 310 107 310 93 C 310 70 313 69 361 72 C 421 75 449 101 418 124 C 402 136 400 158 400 326 C 400 507 401 516 421 528 C 437 539 439 544 430 556 C 415 573 315 576 305 559 z" stroke-linecap="round" />
</g>
		<g transform="matrix(0.0507826107 0 0 -0.0507826107 63.4047481923 13.4956809216)" id="XEu81xgIj3JtrO3IfgNxc"  >
<path style="stroke: none; stroke-width: 1; stroke-dasharray: none; stroke-linecap: butt; stroke-dashoffset: 0; stroke-linejoin: miter; stroke-miterlimit: 4; fill: rgb(0,0,0); fill-rule: nonzero; opacity: 1;" vector-effect="non-scaling-stroke"  transform=" translate(-784.4476809537, -321.4577488448)" d="M 702 558 C 693 549 690 487 690 324 C 690 62 687 69 782 77 C 861 83 870 86 870 105 C 870 124 831 140 784 140 L 750 140 L 750 255 L 750 369 L 780 385 C 796 393 817 400 827 400 C 858 400 873 416 865 440 C 859 460 853 462 804 458 C 750 453 750 454 750 482 C 750 509 752 510 803 510 C 867 510 890 522 874 547 C 865 561 847 566 789 568 C 740 570 711 567 702 558 z" stroke-linecap="round" />
</g>
		<g transform="matrix(0.0507826107 0 0 -0.0507826107 51.8797524566 13.7515639401)" id="UFUqcZfM58JSZxQHDZfiC"  >
<path style="stroke: none; stroke-width: 1; stroke-dasharray: none; stroke-linecap: butt; stroke-dashoffset: 0; stroke-linejoin: miter; stroke-miterlimit: 4; fill: rgb(0,0,0); fill-rule: nonzero; opacity: 1;" vector-effect="non-scaling-stroke"  transform=" translate(-557.5, -316.4189567292)" d="M 506 539 C 468 509 471 465 515 417 C 566 361 582 323 588 248 C 592 195 589 175 575 154 C 560 130 556 129 543 143 C 532 154 526 189 521 267 C 515 374 515 375 490 375 L 465 375 L 465 265 C 465 145 474 117 526 83 C 560 61 597 74 627 119 C 646 147 650 166 650 234 C 650 327 625 394 571 444 C 554 461 540 480 540 487 C 540 507 571 503 596 479 C 636 442 657 485 624 535 C 603 567 544 569 506 539 z" stroke-linecap="round" />
</g>
</g>
</g>
<g transform="matrix(0.6990266034 0 0 0.6990266034 53.5202625747 83.7753304389)" id="H-xtJaaHAv31odmhy9_vV"  >
<g style="" vector-effect="non-scaling-stroke"   >
		<g transform="matrix(0.1333333333 0 0 -0.1333333333 -15.4177379218 -0.0392151771)" id="dQPinz1gRJnvh4xUcovuO"  >
<path style="stroke: none; stroke-width: 1; stroke-dasharray: none; stroke-linecap: butt; stroke-dashoffset: 0; stroke-linejoin: miter; stroke-miterlimit: 4; fill: rgb(0,0,0); fill-rule: nonzero; opacity: 1;" vector-effect="non-scaling-stroke"  transform=" translate(-444.3669655866, -290.2941138282)" d="M 411 532 C 389 522 367 498 353 471 C 332 431 330 414 330 286 C 330 169 334 138 349 103 C 372 53 418 25 463 34 C 533 48 551 93 557 277 C 564 445 551 495 496 530 C 456 554 454 554 411 532 z M 479 476 C 488 465 490 412 488 290 C 485 135 483 117 466 105 C 441 86 415 101 401 141 C 384 190 387 415 405 450 C 426 490 458 501 479 476 z" stroke-linecap="round" />
</g>
		<g transform="matrix(0.1333333333 0 0 -0.1333333333 -49.0219197417 -0.027030053)" id="SmaOtCSh1cRRpPW324rHp"  >
<path style="stroke: none; stroke-width: 1; stroke-dasharray: none; stroke-linecap: butt; stroke-dashoffset: 0; stroke-linejoin: miter; stroke-miterlimit: 4; fill: rgb(0,0,0); fill-rule: nonzero; opacity: 1;" vector-effect="non-scaling-stroke"  transform=" translate(-192.3356019372, -290.2027253973)" d="M 138 517 C 89 471 75 237 115 120 C 130 75 169 40 202 40 C 225 40 267 92 279 135 C 295 193 293 249 275 256 C 251 266 230 241 230 203 C 230 185 223 153 215 133 C 200 98 199 97 182 113 C 168 128 165 155 162 291 C 158 461 163 484 204 478 C 221 476 226 466 230 430 C 234 390 238 385 260 385 C 281 385 286 391 291 425 C 299 470 282 513 251 530 C 217 548 165 542 138 517 z" stroke-linecap="round" />
</g>
		<g transform="matrix(0.1333333333 0 0 -0.1333333333 15.4666666667 -0.1552669833)" id="qaiEhzJC_aeHuFFK0PX5I"  >
<path style="stroke: none; stroke-width: 1; stroke-dasharray: none; stroke-linecap: butt; stroke-dashoffset: 0; stroke-linejoin: miter; stroke-miterlimit: 4; fill: rgb(0,0,0); fill-rule: nonzero; opacity: 1;" vector-effect="non-scaling-stroke"  transform=" translate(-676, -291.1645023747)" d="M 588 534 C 583 530 580 424 580 299 L 580 70 L 605 54 C 638 33 682 43 721 82 C 766 128 772 152 772 291 C 772 424 757 486 716 519 C 697 535 599 546 588 534 z M 678 471 C 706 454 719 387 717 273 C 715 177 712 158 694 133 C 650 75 645 90 642 293 C 639 485 641 495 678 471 z" stroke-linecap="round" />
</g>
		<g transform="matrix(0.1333333333 0 0 -0.1333333333 47.3333333333 -0.4130026357)" id="mwoXNfeGmQsyY9ilc_2R5"  >
<path style="stroke: none; stroke-width: 1; stroke-dasharray: none; stroke-linecap: butt; stroke-dashoffset: 0; stroke-linejoin: miter; stroke-miterlimit: 4; fill: rgb(0,0,0); fill-rule: nonzero; opacity: 1;" vector-effect="non-scaling-stroke"  transform=" translate(-915, -293.0975197678)" d="M 838 529 C 822 520 820 498 820 296 C 820 96 822 72 838 58 C 853 45 883 44 993 50 C 997 50 1000 59 1000 70 C 1000 95 971 110 921 110 L 880 110 L 880 223 C 880 349 880 348 959 370 C 994 379 1001 385 998 403 C 995 423 989 425 938 425 C 881 425 880 425 880 452 C 880 479 882 480 929 480 C 991 480 1010 487 1010 510 C 1010 520 1003 531 994 534 C 969 544 857 540 838 529 z" stroke-linecap="round" />
</g>
</g>
</g>
<g transform="matrix(0.3920290539 0 0 0.3920290539 130.8116100919 75.3505594742)" id="LJfmWdCgK-SDAlNJ5MkLQ"  >
<g style="" vector-effect="non-scaling-stroke"   >
		<g transform="matrix(0.1333333333 0 0 -0.1333333333 -41.6289855072 -0.6666666667)" id="6bFcfmJ6h-ksMRavnmuo7"  >
<path style="stroke: none; stroke-width: 1; stroke-dasharray: none; stroke-linecap: butt; stroke-dashoffset: 0; stroke-linejoin: miter; stroke-miterlimit: 4; fill: rgb(0,0,0); fill-rule: nonzero; opacity: 1;" vector-effect="non-scaling-stroke"  transform=" translate(-147.7826086957, -320)" d="M 63 562 C 55 557 51 490 50 325 C 49 198 49 89 49 83 C 50 76 61 70 75 70 C 107 70 109 83 113 240 C 115 364 118 371 138 295 C 182 129 201 80 221 80 C 249 80 254 103 236 157 C 228 183 212 240 201 284 L 180 363 L 210 397 C 227 415 240 436 241 443 C 245 485 235 518 212 543 C 190 566 178 570 131 570 C 100 570 70 566 63 562 z M 172 503 C 209 470 186 415 138 422 C 120 424 114 432 112 458 C 110 477 111 498 114 506 C 121 525 149 524 172 503 z" stroke-linecap="round" />
</g>
		<g transform="matrix(0.1333333333 0 0 -0.1333333333 -12.0600843586 -0.7419079666)" id="IWlnpaZofqrU0wSswWuHz"  >
<path style="stroke: none; stroke-width: 1; stroke-dasharray: none; stroke-linecap: butt; stroke-dashoffset: 0; stroke-linejoin: miter; stroke-miterlimit: 4; fill: rgb(0,0,0); fill-rule: nonzero; opacity: 1;" vector-effect="non-scaling-stroke"  transform=" translate(-369.5493673105, -320.5643097494)" d="M 305 559 C 301 553 307 538 319 526 C 339 505 340 493 340 317 C 340 159 338 128 325 124 C 317 120 310 107 310 93 C 310 70 313 69 361 72 C 421 75 449 101 418 124 C 402 136 400 158 400 326 C 400 507 401 516 421 528 C 437 539 439 544 430 556 C 415 573 315 576 305 559 z" stroke-linecap="round" />
</g>
		<g transform="matrix(0.1333333333 0 0 -0.1333333333 43.2596907938 -0.8610331793)" id="C1mCxdsKhvh816I495VXn"  >
<path style="stroke: none; stroke-width: 1; stroke-dasharray: none; stroke-linecap: butt; stroke-dashoffset: 0; stroke-linejoin: miter; stroke-miterlimit: 4; fill: rgb(0,0,0); fill-rule: nonzero; opacity: 1;" vector-effect="non-scaling-stroke"  transform=" translate(-784.4476809537, -321.4577488448)" d="M 702 558 C 693 549 690 487 690 324 C 690 62 687 69 782 77 C 861 83 870 86 870 105 C 870 124 831 140 784 140 L 750 140 L 750 255 L 750 369 L 780 385 C 796 393 817 400 827 400 C 858 400 873 416 865 440 C 859 460 853 462 804 458 C 750 453 750 454 750 482 C 750 509 752 510 803 510 C 867 510 890 522 874 547 C 865 561 847 566 789 568 C 740 570 711 567 702 558 z" stroke-linecap="round" />
</g>
		<g transform="matrix(0.1333333333 0 0 -0.1333333333 13 -0.1891942306)" id="OIXWmLbpZYC412TFsJ9XA"  >
<path style="stroke: none; stroke-width: 1; stroke-dasharray: none; stroke-linecap: butt; stroke-dashoffset: 0; stroke-linejoin: miter; stroke-miterlimit: 4; fill: rgb(0,0,0); fill-rule: nonzero; opacity: 1;" vector-effect="non-scaling-stroke"  transform=" translate(-557.5, -316.4189567292)" d="M 506 539 C 468 509 471 465 515 417 C 566 361 582 323 588 248 C 592 195 589 175 575 154 C 560 130 556 129 543 143 C 532 154 526 189 521 267 C 515 374 515 375 490 375 L 465 375 L 465 265 C 465 145 474 117 526 83 C 560 61 597 74 627 119 C 646 147 650 166 650 234 C 650 327 625 394 571 444 C 554 461 540 480 540 487 C 540 507 571 503 596 479 C 636 442 657 485 624 535 C 603 567 544 569 506 539 z" stroke-linecap="round" />
</g>
</g>
</g>
</svg>